<?xml version="1.0" standalone="no"?>
<svg xmlns="http://www.w3.org/2000/svg" width="380" height="702.2421875"><g transform="translate(60,20)"><g class="x axis" transform="translate(0,600)" fill="none" font-size="10" font-family="sans-serif" text-anchor="middle"><path class="domain" stroke="#000" d="M0.5,6V0.5H320.5V6"/><g class="tick" opacity="1" transform="translate(42.92682926829267,0)"><line stroke="#000" y2="6"/><text fill="#000" y="9" dy="-0.5em" dx="-.8em" style="text-anchor: end;" transform="rotate(-90)">SF15fb</text></g><g class="tick" opacity="1" transform="translate(120.97560975609755,0)"><line stroke="#000" y2="6"/><text fill="#000" y="9" dy="-0.5em" dx="-.8em" style="text-anchor: end;" transform="rotate(-90)">SF15nf</text></g><g class="tick" opacity="1" transform="translate(199.02439024390245,0)"><line stroke="#000" y2="6"/><text fill="#000" y="9" dy="-0.5em" dx="-.8em" style="text-anchor: end;" transform="rotate(-90)">SF22fb</text></g><g class="tick" opacity="1" transform="translate(277.07317073170736,0)"><line stroke="#000" y2="6"/><text fill="#000" y="9" dy="-0.5em" dx="-.8em" style="text-anchor: end;" transform="rotate(-90)">SF22nf</text></g></g><g class="y axis" fill="none" font-size="10" font-family="sans-serif" text-anchor="end"><path class="domain" stroke="#000" d="M-6,600.5H0.5V0.5H-6"/><g class="tick" opacity="1" transform="translate(0,600.5)"><line stroke="#000" x2="-6"/><text fill="#000" x="-9" dy="0.32em">0%</text></g><g class="tick" opacity="1" transform="translate(0,540.5)"><line stroke="#000" x2="-6"/><text fill="#000" x="-9" dy="0.32em">10%</text></g><g class="tick" opacity="1" transform="translate(0,480.5)"><line stroke="#000" x2="-6"/><text fill="#000" x="-9" dy="0.32em">20%</text></g><g class="tick" opacity="1" transform="translate(0,420.5)"><line stroke="#000" x2="-6"/><text fill="#000" x="-9" dy="0.32em">30%</text></g><g class="tick" opacity="1" transform="translate(0,360.5)"><line stroke="#000" x2="-6"/><text fill="#000" x="-9" dy="0.32em">40%</text></g><g class="tick" opacity="1" transform="translate(0,300.5)"><line stroke="#000" x2="-6"/><text fill="#000" x="-9" dy="0.32em">50%</text></g><g class="tick" opacity="1" transform="translate(0,240.5)"><line stroke="#000" x2="-6"/><text fill="#000" x="-9" dy="0.32em">60%</text></g><g class="tick" opacity="1" transform="translate(0,180.5)"><line stroke="#000" x2="-6"/><text fill="#000" x="-9" dy="0.32em">70%</text></g><g class="tick" opacity="1" transform="translate(0,120.5)"><line stroke="#000" x2="-6"/><text fill="#000" x="-9" dy="0.32em">80%</text></g><g class="tick" opacity="1" transform="translate(0,60.5)"><line stroke="#000" x2="-6"/><text fill="#000" x="-9" dy="0.32em">90%</text></g><g class="tick" opacity="1" transform="translate(0,0.5)"><line stroke="#000" x2="-6"/><text fill="#000" x="-9" dy="0.32em">100%</text></g></g><text id="y-label" text-anchor="middle" style="font: 12px sans-serif;" transform="translate(-30,300)rotate(-90)">Relative Frequency</text><text id="x-label" text-anchor="middle" style="font: 12px sans-serif;" transform="translate(160,662.2421875)">Sample</text><g class="layer" style="fill: rgb(191, 91, 23);"><rect x="163.90243902439025" y="547.9897694444956" height="40.4070141866157" width="70.24390243902441"/><rect x="7.804878048780466" y="585.9010856453558" height="0.08685162846802541" width="70.24390243902441"/><rect x="85.85365853658536" y="597.9326795653326" height="0" width="70.24390243902441"/><rect x="241.95121951219514" y="576.9230769230769" height="0" width="70.24390243902441"/></g><g class="layer" style="fill: rgb(190, 174, 212);"><rect x="163.90243902439025" y="257.3352714961268" height="184.03959740188048" width="70.24390243902441"/><rect x="7.804878048780466" y="64.58866103739444" height="69.82870928829914" width="70.24390243902441"/><rect x="85.85365853658536" y="0" height="0" width="70.24390243902441"/><rect x="241.95121951219514" y="0" height="0" width="70.24390243902441"/></g><g class="layer" style="fill: rgb(127, 201, 127);"><rect x="163.90243902439025" y="599.9558393287577" height="0.04416067124225265" width="70.24390243902441"/><rect x="7.804878048780466" y="599.9710494571773" height="0.028950542822713032" width="70.24390243902441"/><rect x="85.85365853658536" y="600" height="0" width="70.24390243902441"/><rect x="241.95121951219514" y="600" height="0" width="70.24390243902441"/></g><g class="layer" style="fill: rgb(56, 108, 176);"><rect x="163.90243902439025" y="596.8756325096141" height="1.0046552707601677" width="70.24390243902441"/><rect x="7.804878048780466" y="596.7285886610374" height="0.2316043425813632" width="70.24390243902441"/><rect x="85.85365853658536" y="599.4169096209913" height="0" width="70.24390243902441"/><rect x="241.95121951219514" y="576.9230769230769" height="0" width="70.24390243902441"/></g><g class="layer" style="fill: rgb(127, 201, 127);"><rect x="163.90243902439025" y="0" height="257.3352714961268" width="70.24390243902441"/><rect x="7.804878048780466" y="0" height="64.58866103739444" width="70.24390243902441"/><rect x="85.85365853658536" y="0" height="0" width="70.24390243902441"/><rect x="241.95121951219514" y="0" height="0" width="70.24390243902441"/></g><g class="layer" style="fill: rgb(240, 2, 127);"><rect x="163.90243902439025" y="495.5600125121902" height="52.42975693230534" width="70.24390243902441"/><rect x="7.804878048780466" y="556.1688781664657" height="29.732207478890132" width="70.24390243902441"/><rect x="85.85365853658536" y="597.9326795653326" height="0" width="70.24390243902441"/><rect x="241.95121951219514" y="576.9230769230769" height="0" width="70.24390243902441"/></g><g class="layer" style="fill: rgb(255, 255, 153);"><rect x="163.90243902439025" y="595.6391337148325" height="1.2364987947815962" width="70.24390243902441"/><rect x="7.804878048780466" y="596.6417370325694" height="0.08685162846802541" width="70.24390243902441"/><rect x="85.85365853658536" y="599.4169096209913" height="0" width="70.24390243902441"/><rect x="241.95121951219514" y="576.9230769230769" height="0" width="70.24390243902441"/></g><g class="layer" style="fill: rgb(102, 102, 102);"><rect x="163.90243902439025" y="588.3967836311112" height="5.05639685723213" width="70.24390243902441"/><rect x="7.804878048780466" y="585.9879372738238" height="1.389626055488634" width="70.24390243902441"/><rect x="85.85365853658536" y="597.9326795653326" height="0" width="70.24390243902441"/><rect x="241.95121951219514" y="576.9230769230769" height="0" width="70.24390243902441"/></g><g class="layer" style="fill: rgb(190, 174, 212);"><rect x="163.90243902439025" y="599.6246342944413" height="0.11040167810551793" width="70.24390243902441"/><rect x="7.804878048780466" y="598.9288299155609" height="0.5790108564535785" width="70.24390243902441"/><rect x="85.85365853658536" y="599.4169096209913" height="0.26504108136759896" width="70.24390243902441"/><rect x="241.95121951219514" y="576.9230769230769" height="0" width="70.24390243902441"/></g><g class="layer" style="fill: rgb(191, 91, 23);"><rect x="163.90243902439025" y="598.7524610374078" height="0.8059322501701445" width="70.24390243902441"/><rect x="7.804878048780466" y="596.9601930036188" height="0" width="70.24390243902441"/><rect x="85.85365853658536" y="599.4169096209913" height="0" width="70.24390243902441"/><rect x="241.95121951219514" y="576.9230769230769" height="0" width="70.24390243902441"/></g><g class="layer" style="fill: rgb(102, 102, 102);"><rect x="163.90243902439025" y="599.900638489705" height="0.055200839052758965" width="70.24390243902441"/><rect x="7.804878048780466" y="599.9710494571773" height="0" width="70.24390243902441"/><rect x="85.85365853658536" y="600" height="0" width="70.24390243902441"/><rect x="241.95121951219514" y="600" height="0" width="70.24390243902441"/></g><g class="layer" style="fill: rgb(253, 192, 134);"><rect x="163.90243902439025" y="441.37486889800726" height="0" width="70.24390243902441"/><rect x="7.804878048780466" y="134.41737032569358" height="360.1447527141134" width="70.24390243902441"/><rect x="85.85365853658536" y="0" height="0" width="70.24390243902441"/><rect x="241.95121951219514" y="0" height="0" width="70.24390243902441"/></g><g class="layer" style="fill: rgb(253, 192, 134);"><rect x="163.90243902439025" y="593.9610282076287" height="1.6781055072037816" width="70.24390243902441"/><rect x="7.804878048780466" y="596.6417370325694" height="0" width="70.24390243902441"/><rect x="85.85365853658536" y="599.4169096209913" height="0" width="70.24390243902441"/><rect x="241.95121951219514" y="576.9230769230769" height="0" width="70.24390243902441"/></g><g class="layer" style="fill: rgb(127, 201, 127);"><rect x="163.90243902439025" y="599.5583932875779" height="0.06624100686337897" width="70.24390243902441"/><rect x="7.804878048780466" y="598.0313630880579" height="0.8974668275029671" width="70.24390243902441"/><rect x="85.85365853658536" y="599.4169096209913" height="0" width="70.24390243902441"/><rect x="241.95121951219514" y="576.9230769230769" height="0" width="70.24390243902441"/></g><g class="layer" style="fill: rgb(56, 108, 176);"><rect x="163.90243902439025" y="442.02623879882975" height="53.53377371336046" width="70.24390243902441"/><rect x="7.804878048780466" y="495.51749095295537" height="60.651387213510304" width="70.24390243902441"/><rect x="85.85365853658536" y="597.9326795653326" height="0" width="70.24390243902441"/><rect x="241.95121951219514" y="576.9230769230769" height="0" width="70.24390243902441"/></g><g class="layer" style="fill: rgb(240, 2, 127);"><rect x="163.90243902439025" y="597.8802877803743" height="0.8721732570335234" width="70.24390243902441"/><rect x="7.804878048780466" y="596.9601930036188" height="0" width="70.24390243902441"/><rect x="85.85365853658536" y="599.4169096209913" height="0" width="70.24390243902441"/><rect x="241.95121951219514" y="576.9230769230769" height="0" width="70.24390243902441"/></g><g class="layer" style="fill: rgb(127, 201, 127);"><rect x="163.90243902439025" y="593.4531804883434" height="0" width="70.24390243902441"/><rect x="7.804878048780466" y="587.3775633293125" height="7.006031363088027" width="70.24390243902441"/><rect x="85.85365853658536" y="597.9326795653326" height="0" width="70.24390243902441"/><rect x="241.95121951219514" y="576.9230769230769" height="0" width="70.24390243902441"/></g><g class="layer" style="fill: rgb(102, 102, 102);"><rect x="163.90243902439025" y="599.5583932875779" height="0" width="70.24390243902441"/><rect x="7.804878048780466" y="596.9601930036188" height="1.0711700844391316" width="70.24390243902441"/><rect x="85.85365853658536" y="599.4169096209913" height="0" width="70.24390243902441"/><rect x="241.95121951219514" y="576.9230769230769" height="0" width="70.24390243902441"/></g><g class="layer" style="fill: rgb(191, 91, 23);"><rect x="163.90243902439025" y="599.8564778184628" height="0.04416067124213896" width="70.24390243902441"/><rect x="7.804878048780466" y="599.9710494571773" height="0" width="70.24390243902441"/><rect x="85.85365853658536" y="599.9469917837265" height="0.053008216273497055" width="70.24390243902441"/><rect x="241.95121951219514" y="576.9230769230769" height="23.076923076923094" width="70.24390243902441"/></g><g class="layer" style="fill: rgb(190, 174, 212);"><rect x="163.90243902439025" y="593.4531804883434" height="0.507847719285337" width="70.24390243902441"/><rect x="7.804878048780466" y="594.3835946924005" height="2.258142340168888" width="70.24390243902441"/><rect x="85.85365853658536" y="597.9326795653326" height="1.4842300556587134" width="70.24390243902441"/><rect x="241.95121951219514" y="576.9230769230769" height="0" width="70.24390243902441"/></g><g class="layer" style="fill: rgb(255, 255, 153);"><rect x="163.90243902439025" y="599.7681564759785" height="0.08832134248439161" width="70.24390243902441"/><rect x="7.804878048780466" y="599.5657418576599" height="0" width="70.24390243902441"/><rect x="85.85365853658536" y="599.893983567453" height="0.053008216273497055" width="70.24390243902441"/><rect x="241.95121951219514" y="576.9230769230769" height="0" width="70.24390243902441"/></g><g class="layer" style="fill: rgb(240, 2, 127);"><rect x="163.90243902439025" y="599.8564778184628" height="0" width="70.24390243902441"/><rect x="7.804878048780466" y="599.7683956574185" height="0.20265379975876385" width="70.24390243902441"/><rect x="85.85365853658536" y="599.9469917837265" height="0" width="70.24390243902441"/><rect x="241.95121951219514" y="576.9230769230769" height="0" width="70.24390243902441"/></g><g class="layer" style="fill: rgb(56, 108, 176);"><rect x="163.90243902439025" y="599.8564778184628" height="0" width="70.24390243902441"/><rect x="7.804878048780466" y="599.5657418576599" height="0.20265379975865017" width="70.24390243902441"/><rect x="85.85365853658536" y="599.9469917837265" height="0" width="70.24390243902441"/><rect x="241.95121951219514" y="576.9230769230769" height="0" width="70.24390243902441"/></g><g class="layer" style="fill: rgb(253, 192, 134);"><rect x="163.90243902439025" y="599.7350359725468" height="0.03312050343163264" width="70.24390243902441"/><rect x="7.804878048780466" y="599.5078407720144" height="0.057901085645426065" width="70.24390243902441"/><rect x="85.85365853658536" y="599.6819507023589" height="0.2120328650941019" width="70.24390243902441"/><rect x="241.95121951219514" y="576.9230769230769" height="0" width="70.24390243902441"/></g><g class="layer" style="fill: rgb(255, 255, 153);"><rect x="163.90243902439025" y="441.37486889800726" height="0.6513699008224876" width="70.24390243902441"/><rect x="7.804878048780466" y="494.562123039807" height="0.9553679131483932" width="70.24390243902441"/><rect x="85.85365853658536" y="0" height="597.9326795653326" width="70.24390243902441"/><rect x="241.95121951219514" y="0" height="576.9230769230769" width="70.24390243902441"/></g></g></svg>