<svg version="1.1" xmlns="http://www.w3.org/2000/svg" viewBox="0 0 444 55.53251339958493" width="444" height="55.53251339958493" class="excalidraw-svg">
  <!-- svg-source:excalidraw -->
  
  <defs>
    <style class="style-fonts">
      @font-face {
        font-family: "Virgil";
        src: url("https://excalidraw.com/Virgil.woff2");
      }
      @font-face {
        font-family: "Cascadia";
        src: url("https://excalidraw.com/Cascadia.woff2");
      }
      @font-face {
        font-family: "Assistant";
        src: url("https://excalidraw.com/Assistant-Regular.woff2");
      }
    </style>
    
  </defs>
  <rect x="0" y="0" width="444" height="55.53251339958493" fill="#ffffff"/><g stroke-linecap="round" transform="translate(10 40.19920041130368) rotate(0 212 2.666656494140625)"><path d="M0 0 C97.39 0, 194.78 0, 424 0 M0 0 C96.75 0, 193.51 0, 424 0 M424 0 C424 1.7, 424 3.39, 424 5.33 M424 0 C424 1.19, 424 2.39, 424 5.33 M424 5.33 C278.65 5.33, 133.31 5.33, 0 5.33 M424 5.33 C319.38 5.33, 214.77 5.33, 0 5.33 M0 5.33 C0 4.18, 0 3.02, 0 0 M0 5.33 C0 3.57, 0 1.81, 0 0" stroke="#000000" stroke-width="1" fill="none"/></g><g transform="translate(408 39.53251339958493) rotate(0 -186.33334350585938 -8.666671752929688)" stroke="none"><path fill="#0b7285" d="M -0.82,2.06 Q -0.82,2.06 -1.83,1.82 -2.84,1.58 -4.26,1.11 -5.67,0.64 -6.90,-0.07 -8.13,-0.80 -9.19,-1.37 -10.25,-1.94 -11.48,-2.68 -12.71,-3.42 -13.69,-3.84 -14.68,-4.26 -16.29,-4.35 -17.91,-4.44 -19.14,-4.50 -20.37,-4.56 -22.24,-4.58 -24.12,-4.60 -25.46,-4.81 -26.80,-5.03 -28.69,-5.12 -30.58,-5.22 -32.70,-5.46 -34.82,-5.69 -36.26,-5.79 -37.69,-5.89 -39.49,-6.13 -41.30,-6.38 -43.63,-6.68 -45.97,-6.98 -48.11,-7.10 -50.26,-7.21 -51.52,-7.23 -52.79,-7.25 -53.90,-7.25 -55.02,-7.26 -57.09,-7.27 -59.15,-7.27 -61.36,-7.27 -63.56,-7.27 -64.64,-7.18 -65.73,-7.09 -67.78,-7.09 -69.83,-7.09 -71.22,-7.09 -72.61,-7.09 -74.01,-7.30 -75.41,-7.51 -77.59,-7.83 -79.76,-8.15 -82.27,-8.70 -84.79,-9.25 -86.88,-9.45 -88.97,-9.64 -90.04,-9.67 -91.11,-9.71 -92.70,-9.92 -94.29,-10.14 -95.38,-10.22 -96.46,-10.30 -98.49,-10.35 -100.51,-10.40 -102.62,-10.41 -104.73,-10.41 -105.86,-10.42 -106.99,-10.42 -108.24,-10.42 -109.49,-10.42 -111.00,-10.63 -112.50,-10.83 -113.88,-10.90 -115.25,-10.97 -116.43,-11.00 -117.61,-11.04 -118.87,-11.05 -120.12,-11.06 -122.38,-10.80 -124.64,-10.54 -126.38,-10.50 -128.12,-10.47 -129.62,-10.45 -131.11,-10.44 -132.52,-10.43 -133.92,-10.43 -135.28,-10.43 -136.64,-10.42 -137.78,-10.24 -138.93,-10.07 -140.18,-9.81 -141.44,-9.55 -142.94,-9.41 -144.44,-9.27 -145.65,-9.21 -146.86,-9.16 -148.21,-9.35 -149.55,-9.54 -150.81,-9.59 -152.06,-9.65 -153.58,-9.89 -155.09,-10.13 -156.53,-9.83 -157.96,-9.53 -159.34,-9.38 -160.73,-9.24 -161.86,-9.20 -162.99,-9.15 -164.47,-9.34 -165.94,-9.52 -167.91,-9.62 -169.88,-9.71 -171.06,-9.72 -172.24,-9.73 -173.51,-9.74 -174.78,-9.74 -175.90,-9.75 -177.02,-9.75 -178.33,-9.95 -179.64,-10.14 -181.74,-10.40 -183.84,-10.65 -185.13,-10.75 -186.42,-10.85 -187.58,-10.72 -188.74,-10.58 -190.09,-10.47 -191.44,-10.36 -192.75,-10.33 -194.07,-10.29 -195.39,-10.28 -196.71,-10.26 -198.04,-10.26 -199.37,-10.25 -201.08,-10.45 -202.80,-10.65 -204.11,-10.72 -205.42,-10.79 -206.80,-11.05 -208.17,-11.30 -209.49,-11.59 -210.80,-11.89 -212.26,-11.98 -213.72,-12.07 -215.33,-12.12 -216.94,-12.17 -218.41,-12.00 -219.88,-11.84 -221.24,-11.76 -222.60,-11.69 -224.02,-11.86 -225.44,-12.03 -226.94,-12.25 -228.44,-12.46 -231.04,-12.65 -233.63,-12.83 -236.29,-12.58 -238.96,-12.32 -241.25,-12.27 -243.53,-12.22 -244.77,-12.38 -246.00,-12.53 -247.19,-12.81 -248.38,-13.09 -250.12,-13.48 -251.86,-13.87 -253.21,-13.94 -254.55,-14.01 -256.73,-14.04 -258.90,-14.06 -259.98,-14.07 -261.06,-14.07 -262.94,-13.65 -264.83,-13.22 -266.64,-12.88 -268.46,-12.53 -270.47,-12.34 -272.49,-12.14 -274.50,-12.12 -276.50,-12.09 -278.38,-11.81 -280.25,-11.54 -282.51,-11.22 -284.77,-10.90 -286.34,-10.68 -287.91,-10.46 -289.81,-10.14 -291.71,-9.82 -292.93,-9.69 -294.15,-9.57 -295.25,-9.52 -296.36,-9.47 -297.57,-9.28 -298.79,-9.09 -300.73,-8.81 -302.67,-8.52 -304.37,-8.39 -306.06,-8.26 -307.82,-7.78 -309.58,-7.30 -311.77,-6.78 -313.95,-6.26 -315.11,-6.14 -316.26,-6.01 -317.33,-5.98 -318.40,-5.96 -320.64,-5.94 -322.88,-5.93 -324.52,-5.93 -326.17,-5.92 -327.37,-5.66 -328.58,-5.40 -330.38,-5.34 -332.19,-5.28 -333.34,-5.52 -334.49,-5.76 -335.89,-5.56 -337.28,-5.37 -338.78,-5.32 -340.27,-5.27 -341.76,-5.11 -343.25,-4.94 -344.74,-4.81 -346.23,-4.67 -347.65,-4.33 -349.07,-3.99 -350.22,-3.72 -351.37,-3.44 -352.68,-3.10 -353.98,-2.76 -355.29,-2.44 -356.60,-2.12 -357.97,-1.80 -359.34,-1.48 -360.83,-1.09 -362.32,-0.71 -363.39,-0.35 -364.46,-0.00 -365.57,0.28 -366.68,0.57 -370.03,-1.13 -373.38,-2.84 -373.50,-3.02 -373.62,-3.20 -373.68,-3.40 -373.73,-3.61 -373.72,-3.82 -373.71,-4.03 -373.63,-4.23 -373.55,-4.43 -373.41,-4.59 -373.27,-4.75 -373.09,-4.86 -372.90,-4.97 -372.70,-5.01 -372.49,-5.05 -372.28,-5.03 -372.07,-5.01 -371.87,-4.92 -371.68,-4.83 -371.53,-4.68 -371.38,-4.53 -371.28,-4.34 -371.18,-4.16 -371.14,-3.95 -371.11,-3.74 -371.15,-3.53 -371.18,-3.32 -371.28,-3.13 -371.38,-2.94 -371.54,-2.80 -371.69,-2.65 -371.89,-2.56 -372.08,-2.48 -372.29,-2.45 -372.50,-2.43 -372.71,-2.48 -372.92,-2.53 -373.10,-2.64 -373.28,-2.75 -373.42,-2.91 -373.55,-3.07 -373.63,-3.27 -373.71,-3.47 -373.72,-3.68 -373.73,-3.89 -373.67,-4.10 -373.61,-4.30 -373.49,-4.48 -373.37,-4.65 -373.20,-4.78 -373.03,-4.91 -372.83,-4.97 -372.63,-5.04 -372.42,-5.04 -372.21,-5.04 -372.00,-4.97 -371.80,-4.90 -371.63,-4.77 -371.47,-4.64 -371.47,-4.64 -371.47,-4.64 -370.93,-5.04 -370.39,-5.44 -369.11,-5.68 -367.83,-5.92 -366.84,-6.31 -365.85,-6.70 -364.55,-6.96 -363.25,-7.22 -362.20,-7.57 -361.14,-7.93 -359.48,-8.38 -357.82,-8.83 -356.48,-9.04 -355.14,-9.26 -353.75,-9.71 -352.36,-10.16 -350.69,-10.49 -349.03,-10.83 -347.95,-11.12 -346.88,-11.42 -345.75,-11.52 -344.62,-11.62 -343.35,-11.85 -342.09,-12.08 -340.60,-12.09 -339.12,-12.11 -337.98,-12.17 -336.84,-12.24 -335.49,-12.41 -334.14,-12.58 -332.50,-12.35 -330.85,-12.12 -329.68,-12.18 -328.50,-12.24 -327.37,-12.49 -326.24,-12.73 -324.57,-12.74 -322.91,-12.74 -320.74,-12.76 -318.57,-12.77 -316.65,-12.78 -314.74,-12.79 -313.06,-13.17 -311.38,-13.56 -310.27,-13.87 -309.16,-14.19 -307.86,-14.47 -306.56,-14.75 -305.08,-14.86 -303.60,-14.96 -301.68,-15.24 -299.76,-15.52 -298.19,-15.75 -296.62,-15.97 -294.83,-16.08 -293.03,-16.19 -291.18,-16.50 -289.32,-16.81 -288.12,-17.06 -286.92,-17.30 -285.21,-17.42 -283.51,-17.53 -281.33,-17.83 -279.15,-18.14 -277.86,-18.37 -276.58,-18.59 -274.69,-18.62 -272.80,-18.64 -271.42,-18.74 -270.04,-18.84 -268.15,-19.21 -266.26,-19.57 -264.99,-19.86 -263.72,-20.14 -262.39,-20.36 -261.06,-20.58 -259.96,-20.57 -258.86,-20.57 -257.64,-20.56 -256.42,-20.55 -255.35,-20.53 -254.29,-20.52 -252.09,-20.29 -249.90,-20.07 -248.39,-19.75 -246.89,-19.43 -245.23,-18.95 -243.57,-18.47 -241.42,-18.52 -239.26,-18.56 -237.89,-18.60 -236.52,-18.65 -234.99,-18.83 -233.47,-19.02 -231.71,-19.04 -229.94,-19.07 -228.62,-18.92 -227.30,-18.76 -225.11,-18.31 -222.92,-17.85 -221.71,-17.92 -220.50,-17.98 -218.63,-18.16 -216.76,-18.34 -215.02,-18.28 -213.28,-18.23 -211.36,-18.07 -209.44,-17.91 -207.25,-17.44 -205.06,-16.96 -203.55,-16.87 -202.04,-16.78 -200.71,-16.60 -199.39,-16.42 -198.08,-16.43 -196.78,-16.44 -195.50,-16.45 -194.23,-16.46 -192.12,-16.54 -190.01,-16.62 -188.80,-16.84 -187.58,-17.05 -186.01,-16.99 -184.43,-16.92 -182.67,-16.60 -180.90,-16.28 -178.95,-15.93 -176.99,-15.57 -175.87,-15.57 -174.76,-15.56 -173.47,-15.56 -172.18,-15.55 -170.94,-15.54 -169.70,-15.52 -168.61,-15.49 -167.52,-15.46 -165.36,-15.21 -163.20,-14.96 -161.32,-15.06 -159.44,-15.15 -158.32,-15.43 -157.21,-15.70 -155.70,-15.79 -154.20,-15.87 -152.98,-15.67 -151.76,-15.46 -149.42,-15.22 -147.09,-14.97 -146.01,-15.02 -144.94,-15.07 -143.77,-15.16 -142.60,-15.25 -141.18,-15.54 -139.75,-15.83 -138.21,-16.03 -136.66,-16.24 -135.30,-16.24 -133.94,-16.25 -132.56,-16.25 -131.17,-16.26 -129.70,-16.27 -128.24,-16.29 -126.62,-16.32 -125.01,-16.35 -123.91,-16.41 -122.81,-16.47 -121.44,-16.68 -120.07,-16.88 -118.76,-16.87 -117.45,-16.85 -116.19,-16.82 -114.94,-16.78 -113.30,-16.68 -111.65,-16.59 -110.57,-16.41 -109.48,-16.24 -108.23,-16.24 -106.99,-16.24 -105.85,-16.24 -104.72,-16.23 -103.41,-16.23 -102.09,-16.23 -100.20,-16.20 -98.30,-16.18 -97.17,-16.14 -96.03,-16.10 -94.75,-16.00 -93.47,-15.90 -92.20,-15.71 -90.93,-15.52 -89.78,-15.49 -88.62,-15.45 -87.22,-15.36 -85.83,-15.27 -84.46,-15.04 -83.10,-14.82 -81.99,-14.45 -80.88,-14.08 -78.87,-13.76 -76.85,-13.44 -74.73,-13.17 -72.60,-12.90 -71.21,-12.90 -69.83,-12.90 -67.78,-12.90 -65.73,-12.90 -64.64,-12.81 -63.56,-12.72 -61.35,-12.72 -59.15,-12.72 -57.06,-12.71 -54.98,-12.71 -53.85,-12.70 -52.71,-12.69 -51.40,-12.67 -50.08,-12.66 -48.77,-12.61 -47.46,-12.56 -46.23,-12.45 -44.99,-12.34 -43.89,-12.13 -42.78,-11.92 -41.44,-11.80 -40.11,-11.69 -38.77,-11.51 -37.43,-11.33 -35.65,-11.19 -33.87,-11.05 -32.13,-10.86 -30.39,-10.66 -29.31,-10.63 -28.23,-10.59 -26.16,-10.32 -24.09,-10.05 -22.63,-10.04 -21.16,-10.03 -19.82,-9.97 -18.48,-9.91 -16.46,-9.61 -14.43,-9.30 -13.03,-8.81 -11.63,-8.32 -10.42,-7.70 -9.21,-7.08 -7.89,-6.39 -6.56,-5.70 -4.99,-4.79 -3.43,-3.87 -2.20,-3.49 -0.98,-3.11 -0.07,-2.59 0.82,-2.06 1.06,-1.93 1.29,-1.80 1.49,-1.62 1.69,-1.44 1.84,-1.22 1.99,-0.99 2.08,-0.74 2.17,-0.49 2.19,-0.22 2.22,0.04 2.18,0.30 2.15,0.57 2.05,0.82 1.95,1.07 1.79,1.28 1.64,1.50 1.43,1.68 1.23,1.85 0.99,1.97 0.75,2.09 0.49,2.15 0.22,2.21 -0.04,2.21 -0.30,2.20 -0.56,2.13 -0.82,2.06 -0.82,2.06 L -0.82,2.06 Z"/></g><g transform="translate(38 35.53251339958493) rotate(0 86 -6.333343505859375)" stroke="none"><path fill="#0b7285" d="M 0.39,-1.99 Q 0.39,-1.99 1.40,-2.04 2.41,-2.09 4.25,-2.35 6.10,-2.60 7.70,-3.21 9.30,-3.82 10.79,-3.99 12.29,-4.17 13.38,-3.89 14.46,-3.61 15.63,-3.59 16.80,-3.58 18.06,-3.55 19.31,-3.52 20.64,-3.85 21.97,-4.19 23.06,-4.21 24.16,-4.24 26.12,-3.89 28.08,-3.54 29.46,-3.20 30.84,-2.85 31.98,-2.65 33.13,-2.46 34.31,-2.57 35.50,-2.68 35.85,-2.80 36.21,-2.91 36.58,-2.93 36.95,-2.96 37.32,-2.89 37.68,-2.83 38.02,-2.68 38.36,-2.53 38.66,-2.30 38.95,-2.07 39.18,-1.78 39.42,-1.49 39.57,-1.15 39.73,-0.81 39.79,-0.45 39.86,-0.08 39.84,0.28 39.82,0.65 39.71,1.01 39.61,1.36 39.42,1.68 39.23,2.00 38.96,2.27 38.70,2.53 38.38,2.73 38.07,2.92 36.17,2.42 34.28,1.93 32.80,2.18 31.31,2.43 29.60,2.22 27.88,2.01 26.74,1.94 25.60,1.86 23.56,1.82 21.51,1.77 20.13,2.02 18.74,2.28 17.44,2.34 16.14,2.39 14.72,2.40 13.30,2.41 12.27,2.74 11.24,3.06 10.85,3.10 10.47,3.15 10.09,3.10 9.70,3.05 9.34,2.91 8.98,2.77 8.67,2.55 8.35,2.33 8.10,2.04 7.84,1.75 7.67,1.40 7.49,1.06 7.40,0.68 7.31,0.31 7.31,-0.07 7.31,-0.45 7.41,-0.83 7.50,-1.20 7.68,-1.54 7.87,-1.88 8.12,-2.17 8.38,-2.46 8.70,-2.68 9.02,-2.89 9.38,-3.03 9.75,-3.16 11.27,-2.62 12.79,-2.08 14.58,-1.94 16.38,-1.80 17.61,-1.86 18.85,-1.92 20.12,-1.92 21.38,-1.92 22.94,-1.92 24.49,-1.92 26.00,-1.91 27.51,-1.90 29.40,-2.21 31.30,-2.53 32.51,-2.55 33.72,-2.57 35.54,-2.83 37.36,-3.09 39.08,-2.82 40.81,-2.54 41.17,-2.46 41.53,-2.38 41.86,-2.17 42.19,-1.97 42.46,-1.68 42.74,-1.40 42.93,-1.06 43.13,-0.72 43.24,-0.35 43.35,0.02 43.37,0.41 43.39,0.80 43.31,1.19 43.23,1.57 43.06,1.93 42.90,2.28 42.65,2.59 42.40,2.89 42.09,3.13 41.78,3.36 41.42,3.52 41.06,3.67 40.67,3.74 40.28,3.80 39.89,3.77 39.50,3.74 39.13,3.62 38.76,3.49 37.36,3.39 35.96,3.29 33.84,3.27 31.72,3.26 30.06,3.05 28.39,2.84 27.30,2.77 26.21,2.70 25.00,2.66 23.79,2.63 21.93,2.61 20.07,2.59 18.56,2.59 17.06,2.58 15.84,2.84 14.62,3.09 13.36,3.16 12.11,3.23 10.98,3.24 9.85,3.25 7.80,2.88 5.76,2.52 5.28,2.36 4.80,2.21 4.42,2.11 4.04,2.00 3.70,1.81 3.36,1.62 3.07,1.35 2.79,1.08 2.57,0.75 2.36,0.42 2.23,0.05 2.10,-0.31 2.07,-0.70 2.03,-1.09 2.09,-1.48 2.15,-1.86 2.30,-2.23 2.45,-2.59 2.68,-2.90 2.91,-3.22 3.21,-3.47 3.51,-3.72 3.87,-3.90 4.22,-4.07 4.60,-4.15 4.99,-4.23 5.38,-4.22 5.77,-4.21 7.31,-4.69 8.84,-5.18 9.99,-4.96 11.14,-4.74 12.69,-4.68 14.23,-4.62 15.44,-4.38 16.65,-4.14 17.76,-4.09 18.87,-4.04 21.04,-3.76 23.21,-3.49 24.84,-3.39 26.47,-3.30 28.68,-3.28 30.89,-3.26 31.97,-3.26 33.06,-3.25 35.11,-3.25 37.16,-3.25 38.56,-3.41 39.97,-3.56 41.53,-3.97 43.09,-4.37 45.34,-4.46 47.58,-4.55 48.95,-4.56 50.32,-4.58 52.37,-4.84 54.42,-5.11 55.99,-5.25 57.55,-5.38 59.13,-5.33 60.71,-5.28 62.55,-5.28 64.39,-5.29 65.61,-5.34 66.84,-5.40 68.85,-5.67 70.86,-5.94 72.43,-5.99 74.01,-6.05 75.57,-6.32 77.14,-6.59 78.79,-6.91 80.43,-7.23 82.67,-7.31 84.91,-7.38 85.99,-7.39 87.07,-7.39 89.31,-7.40 91.55,-7.40 93.58,-7.20 95.61,-7.00 97.08,-6.93 98.55,-6.85 100.00,-6.60 101.45,-6.35 102.80,-6.05 104.16,-5.75 106.79,-5.40 109.41,-5.06 110.73,-5.16 112.04,-5.27 113.56,-5.31 115.07,-5.35 116.48,-5.36 117.90,-5.38 119.24,-5.64 120.59,-5.89 121.92,-5.99 123.26,-6.08 125.57,-6.40 127.89,-6.73 129.01,-6.94 130.12,-7.15 131.37,-7.42 132.62,-7.70 133.94,-7.86 135.27,-8.01 136.37,-8.23 137.47,-8.45 139.71,-9.04 141.95,-9.63 143.37,-10.26 144.80,-10.88 146.42,-11.43 148.03,-11.97 150.16,-12.26 152.28,-12.55 154.11,-12.65 155.94,-12.74 157.70,-12.96 159.45,-13.18 160.91,-13.45 162.37,-13.73 163.74,-14.03 165.10,-14.33 168.40,-14.70 171.69,-15.07 170.77,-15.34 169.84,-15.62 170.27,-15.66 170.70,-15.69 171.12,-15.62 171.54,-15.55 171.93,-15.38 172.33,-15.22 172.67,-14.96 173.01,-14.70 173.28,-14.37 173.55,-14.04 173.74,-13.65 173.92,-13.26 174.01,-12.84 174.09,-12.42 174.07,-12.00 174.06,-11.57 173.94,-11.16 173.82,-10.75 173.60,-10.38 173.39,-10.01 173.09,-9.70 172.80,-9.39 172.43,-9.16 172.07,-8.93 171.67,-8.79 171.26,-8.66 169.27,-7.52 167.27,-6.39 163.70,-5.44 160.13,-4.50 154.60,-4.39 149.06,-4.28 145.00,-4.03 140.94,-3.78 137.31,-3.48 133.68,-3.19 129.78,-2.50 125.87,-1.82 122.17,-1.32 118.47,-0.82 115.09,-0.60 111.70,-0.38 108.62,-0.48 105.54,-0.59 102.60,-0.63 99.67,-0.67 97.46,-0.64 95.25,-0.60 93.73,-0.46 92.21,-0.31 91.29,-0.24 90.37,-0.17 89.97,-0.18 89.58,-0.18 89.19,-0.29 88.81,-0.39 88.46,-0.57 88.11,-0.76 87.82,-1.03 87.53,-1.30 87.31,-1.63 87.09,-1.96 86.95,-2.33 86.82,-2.70 86.77,-3.10 86.73,-3.49 86.78,-3.88 86.84,-4.27 86.98,-4.64 87.13,-5.01 87.36,-5.34 87.59,-5.66 87.89,-5.92 88.19,-6.18 88.54,-6.36 88.90,-6.53 89.28,-6.62 89.67,-6.71 88.46,-6.25 87.26,-5.78 88.50,-7.22 89.75,-8.66 91.67,-9.73 93.59,-10.80 96.99,-11.45 100.39,-12.09 104.03,-12.14 107.68,-12.18 111.59,-11.80 115.51,-11.42 119.28,-10.86 123.05,-10.31 126.41,-9.69 129.78,-9.06 132.58,-8.34 135.39,-7.61 137.07,-7.10 138.74,-6.59 138.99,-6.41 139.24,-6.22 139.61,-6.06 139.99,-5.89 140.32,-5.64 140.64,-5.39 140.90,-5.07 141.16,-4.75 141.33,-4.38 141.50,-4.00 141.58,-3.60 141.66,-3.19 141.64,-2.78 141.62,-2.37 141.50,-1.98 141.38,-1.58 141.17,-1.23 140.96,-0.88 140.68,-0.58 140.39,-0.29 140.04,-0.07 139.69,0.13 139.30,0.26 138.90,0.39 138.49,0.42 138.08,0.45 137.68,0.38 137.27,0.30 134.19,-0.20 131.11,-0.71 127.47,-1.52 123.83,-2.32 120.18,-3.24 116.53,-4.16 113.21,-5.14 109.89,-6.12 107.07,-7.13 104.25,-8.14 102.11,-8.95 99.97,-9.76 98.69,-10.20 97.42,-10.64 97.06,-10.80 96.69,-10.97 96.38,-11.21 96.07,-11.46 95.83,-11.77 95.58,-12.08 95.42,-12.44 95.26,-12.80 95.19,-13.19 95.11,-13.58 95.14,-13.98 95.16,-14.38 95.28,-14.75 95.40,-15.13 95.60,-15.47 95.81,-15.81 96.09,-16.09 96.37,-16.37 96.71,-16.58 97.05,-16.78 97.43,-16.90 97.81,-17.02 98.20,-17.04 98.60,-17.06 98.99,-16.99 99.38,-16.92 103.26,-15.76 107.14,-14.60 110.60,-13.86 114.06,-13.13 117.75,-12.22 121.44,-11.30 124.95,-10.76 128.46,-10.21 131.69,-9.78 134.93,-9.35 137.82,-9.37 140.71,-9.39 142.65,-9.58 144.58,-9.77 145.65,-10.01 146.72,-10.25 146.55,-9.11 146.37,-7.96 144.78,-9.60 143.18,-11.23 143.02,-11.37 142.85,-11.50 142.74,-11.68 142.63,-11.86 142.58,-12.07 142.53,-12.27 142.54,-12.48 142.56,-12.70 142.65,-12.89 142.73,-13.09 142.88,-13.24 143.02,-13.40 143.21,-13.50 143.39,-13.61 143.60,-13.64 143.81,-13.68 144.02,-13.65 144.23,-13.62 144.42,-13.53 144.61,-13.43 144.76,-13.28 144.91,-13.13 145.00,-12.94 145.09,-12.75 145.12,-12.54 145.15,-12.33 145.11,-12.12 145.07,-11.91 144.96,-11.73 144.85,-11.54 144.69,-11.40 144.54,-11.26 144.34,-11.18 144.14,-11.09 143.93,-11.08 143.72,-11.06 143.51,-11.12 143.31,-11.17 143.13,-11.28 142.95,-11.40 142.82,-11.57 142.69,-11.73 142.62,-11.93 142.54,-12.13 142.54,-12.34 142.54,-12.56 142.60,-12.76 142.66,-12.96 142.79,-13.13 142.91,-13.31 143.09,-13.43 143.26,-13.55 143.46,-13.61 143.67,-13.67 143.88,-13.67 144.09,-13.66 144.29,-13.58 144.49,-13.51 144.49,-13.51 144.49,-13.51 148.09,-12.55 151.69,-11.58 152.12,-9.82 152.55,-8.06 151.54,-6.36 150.54,-4.66 149.36,-4.13 148.18,-3.59 146.70,-3.29 145.22,-2.98 142.97,-2.78 140.73,-2.58 137.38,-2.58 134.04,-2.59 130.72,-3.04 127.40,-3.48 123.60,-4.08 119.80,-4.68 116.22,-5.57 112.64,-6.46 108.92,-7.26 105.20,-8.06 101.31,-9.35 97.42,-10.64 97.06,-10.80 96.70,-10.97 96.38,-11.21 96.07,-11.46 95.83,-11.77 95.58,-12.08 95.42,-12.44 95.26,-12.80 95.19,-13.19 95.11,-13.58 95.14,-13.98 95.16,-14.37 95.28,-14.75 95.40,-15.13 95.60,-15.47 95.81,-15.81 96.09,-16.09 96.37,-16.37 96.71,-16.58 97.05,-16.78 97.43,-16.90 97.81,-17.02 98.20,-17.04 98.60,-17.06 98.99,-16.99 99.38,-16.92 99.65,-16.76 99.92,-16.60 101.10,-16.23 102.28,-15.86 104.37,-15.07 106.46,-14.27 109.10,-13.32 111.73,-12.37 114.93,-11.42 118.12,-10.48 121.68,-9.58 125.25,-8.68 128.66,-7.92 132.06,-7.16 135.65,-6.69 139.24,-6.22 139.61,-6.06 139.99,-5.89 140.32,-5.64 140.64,-5.39 140.90,-5.07 141.16,-4.75 141.33,-4.38 141.50,-4.00 141.58,-3.60 141.66,-3.19 141.64,-2.78 141.62,-2.37 141.50,-1.98 141.38,-1.58 141.17,-1.23 140.96,-0.88 140.68,-0.58 140.39,-0.29 140.04,-0.07 139.69,0.13 139.30,0.26 138.90,0.39 138.49,0.42 138.08,0.45 137.68,0.38 137.27,0.31 136.97,0.09 136.67,-0.11 135.25,-0.53 133.83,-0.95 131.15,-1.51 128.47,-2.08 125.25,-2.68 122.02,-3.28 118.41,-3.81 114.80,-4.35 111.26,-4.71 107.72,-5.08 104.64,-5.08 101.57,-5.09 99.08,-4.73 96.60,-4.38 95.06,-3.82 93.52,-3.27 91.94,-1.72 90.37,-0.17 89.97,-0.18 89.58,-0.18 89.19,-0.29 88.81,-0.39 88.46,-0.57 88.11,-0.76 87.82,-1.03 87.53,-1.30 87.31,-1.63 87.09,-1.96 86.95,-2.33 86.82,-2.70 86.77,-3.09 86.73,-3.49 86.78,-3.88 86.84,-4.27 86.98,-4.64 87.13,-5.01 87.36,-5.34 87.59,-5.66 87.89,-5.92 88.19,-6.18 88.54,-6.36 88.90,-6.53 89.28,-6.62 89.67,-6.71 90.59,-6.80 91.50,-6.89 93.40,-7.11 95.30,-7.33 97.53,-7.26 99.76,-7.19 102.76,-7.14 105.76,-7.10 108.53,-6.99 111.29,-6.89 114.45,-7.09 117.60,-7.28 121.18,-7.76 124.76,-8.24 128.95,-8.96 133.15,-9.68 136.85,-9.98 140.55,-10.29 144.72,-10.54 148.89,-10.79 153.70,-10.96 158.52,-11.13 161.26,-11.75 163.99,-12.36 166.92,-13.99 169.84,-15.62 170.27,-15.66 170.69,-15.69 171.12,-15.62 171.54,-15.55 171.93,-15.38 172.33,-15.22 172.67,-14.96 173.01,-14.70 173.28,-14.37 173.55,-14.04 173.74,-13.65 173.92,-13.26 174.01,-12.84 174.09,-12.43 174.07,-12.00 174.06,-11.57 173.94,-11.16 173.82,-10.75 173.60,-10.38 173.39,-10.01 173.09,-9.70 172.80,-9.39 172.44,-9.16 172.07,-8.93 171.67,-8.79 171.26,-8.66 170.46,-8.65 169.65,-8.64 168.15,-8.02 166.65,-7.40 165.16,-7.07 163.66,-6.74 161.99,-6.44 160.32,-6.13 158.31,-5.89 156.31,-5.65 154.71,-5.57 153.11,-5.49 151.68,-5.36 150.25,-5.23 148.91,-4.78 147.57,-4.34 145.65,-3.55 143.72,-2.75 142.50,-2.44 141.28,-2.13 140.05,-1.80 138.83,-1.48 136.49,-1.12 134.15,-0.76 132.77,-0.46 131.38,-0.15 128.90,0.16 126.42,0.48 125.09,0.74 123.75,1.00 122.62,1.07 121.49,1.15 119.74,1.29 117.98,1.43 116.61,1.44 115.25,1.46 113.82,1.49 112.40,1.53 110.42,1.60 108.43,1.67 106.86,1.44 105.30,1.20 103.99,1.05 102.68,0.90 100.43,0.42 98.18,-0.04 96.54,-0.13 94.91,-0.22 93.23,-0.40 91.55,-0.58 90.35,-0.58 89.15,-0.58 87.08,-0.57 85.01,-0.56 83.92,-0.54 82.82,-0.53 81.48,-0.44 80.15,-0.35 78.40,-0.03 76.65,0.29 74.61,0.54 72.58,0.78 71.10,0.88 69.63,0.97 68.24,1.19 66.86,1.40 65.62,1.35 64.39,1.29 63.31,1.35 62.22,1.41 60.62,1.36 59.02,1.31 57.70,1.36 56.38,1.41 55.14,1.41 53.90,1.41 52.13,1.66 50.36,1.92 49.03,1.93 47.70,1.95 45.92,2.00 44.13,2.04 42.71,2.42 41.30,2.80 39.23,3.02 37.16,3.25 35.10,3.25 33.04,3.24 31.95,3.24 30.85,3.24 29.63,3.23 28.40,3.22 27.32,3.21 26.25,3.19 24.06,3.03 21.87,2.87 20.16,2.66 18.45,2.45 16.86,2.32 15.26,2.20 13.74,2.00 12.21,1.80 10.87,1.68 9.53,1.56 8.32,1.64 7.10,1.73 5.95,1.97 4.80,2.21 4.42,2.11 4.04,2.00 3.70,1.81 3.36,1.62 3.07,1.35 2.79,1.08 2.57,0.75 2.36,0.42 2.23,0.05 2.10,-0.31 2.07,-0.70 2.03,-1.09 2.09,-1.48 2.15,-1.86 2.30,-2.23 2.45,-2.59 2.68,-2.90 2.91,-3.22 3.21,-3.47 3.51,-3.72 3.87,-3.90 4.22,-4.07 4.60,-4.15 4.99,-4.23 5.38,-4.22 5.77,-4.21 6.22,-3.97 6.67,-3.74 7.72,-3.49 8.77,-3.25 9.98,-3.25 11.18,-3.26 12.54,-3.24 13.90,-3.23 15.48,-3.57 17.07,-3.91 18.59,-3.91 20.11,-3.91 22.04,-3.88 23.97,-3.86 25.31,-3.82 26.65,-3.79 27.95,-3.69 29.25,-3.60 30.50,-3.42 31.76,-3.24 32.95,-3.24 34.15,-3.23 36.17,-3.18 38.20,-3.14 39.86,-2.76 41.53,-2.38 41.86,-2.17 42.19,-1.97 42.46,-1.68 42.74,-1.40 42.93,-1.06 43.13,-0.72 43.24,-0.35 43.35,0.02 43.37,0.41 43.39,0.80 43.31,1.19 43.23,1.57 43.06,1.93 42.90,2.28 42.65,2.59 42.40,2.89 42.09,3.13 41.78,3.36 41.42,3.52 41.06,3.67 40.67,3.74 40.28,3.80 39.89,3.77 39.50,3.74 39.13,3.62 38.76,3.49 38.36,3.38 37.96,3.27 36.94,3.58 35.93,3.89 34.27,3.91 32.61,3.94 31.17,3.96 29.73,3.99 27.93,4.29 26.12,4.58 24.74,4.58 23.36,4.58 21.95,4.58 20.55,4.58 19.32,4.58 18.09,4.57 16.73,4.50 15.38,4.42 14.35,4.15 13.32,3.89 12.28,3.47 11.24,3.06 10.86,3.10 10.47,3.15 10.09,3.10 9.70,3.05 9.34,2.91 8.98,2.77 8.67,2.55 8.35,2.33 8.10,2.04 7.84,1.75 7.67,1.40 7.49,1.06 7.40,0.69 7.31,0.31 7.31,-0.07 7.31,-0.45 7.41,-0.83 7.50,-1.20 7.68,-1.54 7.87,-1.88 8.12,-2.17 8.38,-2.46 8.70,-2.68 9.02,-2.89 9.38,-3.03 9.75,-3.16 10.07,-3.08 10.39,-3.00 12.26,-3.37 14.13,-3.75 15.50,-3.77 16.87,-3.79 18.04,-3.87 19.21,-3.95 20.38,-4.17 21.56,-4.39 22.64,-4.38 23.72,-4.36 24.87,-4.32 26.02,-4.29 27.34,-4.19 28.65,-4.10 30.01,-3.92 31.37,-3.74 33.18,-3.71 34.99,-3.68 36.69,-3.13 38.38,-2.59 36.94,-2.64 35.50,-2.68 35.85,-2.80 36.21,-2.91 36.58,-2.93 36.95,-2.96 37.32,-2.89 37.68,-2.83 38.02,-2.68 38.36,-2.53 38.66,-2.30 38.95,-2.07 39.18,-1.78 39.42,-1.49 39.57,-1.15 39.73,-0.81 39.79,-0.45 39.86,-0.08 39.84,0.28 39.82,0.65 39.72,1.01 39.61,1.36 39.42,1.68 39.23,2.00 38.96,2.27 38.70,2.53 38.39,2.73 38.07,2.92 36.69,3.32 35.32,3.72 33.88,3.69 32.44,3.67 31.22,3.41 30.00,3.16 28.71,2.62 27.43,2.09 26.33,1.83 25.23,1.57 24.11,1.30 22.99,1.03 21.91,1.29 20.83,1.55 19.49,1.89 18.16,2.24 17.08,2.23 16.01,2.23 14.94,2.20 13.87,2.17 12.76,1.89 11.66,1.60 10.50,1.82 9.35,2.04 8.00,2.42 6.66,2.80 5.19,2.95 3.71,3.10 2.56,2.98 1.42,2.85 0.51,2.42 -0.39,1.99 -0.63,1.91 -0.86,1.84 -1.07,1.71 -1.28,1.58 -1.45,1.40 -1.62,1.22 -1.74,1.01 -1.86,0.80 -1.93,0.56 -2.00,0.33 -2.01,0.08 -2.02,-0.15 -1.98,-0.39 -1.93,-0.63 -1.82,-0.85 -1.72,-1.08 -1.56,-1.27 -1.41,-1.46 -1.21,-1.60 -1.02,-1.75 -0.79,-1.85 -0.57,-1.95 -0.33,-1.99 -0.08,-2.03 0.15,-2.01 0.39,-1.99 0.39,-1.99 L 0.39,-1.99 Z"/></g><g transform="translate(192 32.86582638786618) rotate(0 47.666656494140625 0.333343505859375)" stroke="none"><path fill="#0b7285" d="M -0.34,-2.39 Q -0.34,-2.39 0.99,-2.63 2.32,-2.88 3.96,-2.97 5.60,-3.06 8.03,-3.02 10.45,-2.98 13.30,-3.26 16.16,-3.54 19.30,-3.82 22.43,-4.10 26.42,-4.59 30.40,-5.09 33.52,-5.31 36.64,-5.53 38.94,-5.62 41.23,-5.72 42.38,-5.56 43.53,-5.41 43.83,-5.39 44.13,-5.36 44.42,-5.27 44.71,-5.17 44.97,-5.01 45.23,-4.84 45.44,-4.62 45.65,-4.40 45.80,-4.14 45.95,-3.88 46.04,-3.59 46.12,-3.29 46.13,-2.99 46.14,-2.68 46.08,-2.39 46.02,-2.09 45.89,-1.81 45.76,-1.54 45.57,-1.30 45.38,-1.07 45.13,-0.88 44.89,-0.70 44.61,-0.58 44.33,-0.46 44.03,-0.41 43.73,-0.36 41.03,-0.37 38.33,-0.38 35.55,-0.36 32.77,-0.35 29.29,-0.35 25.80,-0.34 20.73,-0.15 15.65,0.03 11.35,0.12 7.04,0.20 3.35,0.42 -0.33,0.65 -3.07,0.94 -5.81,1.22 -6.09,1.21 -6.37,1.19 -6.63,1.11 -6.90,1.02 -7.14,0.88 -7.38,0.73 -7.58,0.54 -7.78,0.34 -7.92,0.10 -8.07,-0.13 -8.15,-0.40 -8.24,-0.67 -8.25,-0.95 -8.27,-1.23 -8.22,-1.50 -8.17,-1.78 -8.05,-2.04 -7.94,-2.29 -7.76,-2.51 -7.59,-2.73 -7.37,-2.91 -7.15,-3.08 -6.89,-3.19 -6.64,-3.31 -6.36,-3.36 -6.09,-3.41 -3.94,-3.53 -1.78,-3.64 1.42,-3.70 4.63,-3.77 9.05,-3.79 13.47,-3.82 18.80,-3.83 24.12,-3.84 29.45,-3.84 34.78,-3.85 38.39,-3.85 42.00,-3.85 44.04,-3.65 46.08,-3.46 46.70,-3.38 47.32,-3.29 47.62,-3.23 47.92,-3.16 48.19,-3.03 48.46,-2.89 48.70,-2.69 48.93,-2.50 49.11,-2.25 49.28,-2.00 49.40,-1.72 49.51,-1.44 49.56,-1.14 49.60,-0.84 49.57,-0.53 49.54,-0.23 49.44,0.05 49.34,0.33 49.17,0.59 49.00,0.84 48.78,1.05 48.55,1.26 48.29,1.40 48.02,1.55 47.73,1.63 47.43,1.71 47.13,1.71 46.82,1.72 44.63,1.67 42.43,1.61 40.20,1.55 37.96,1.48 32.95,1.17 27.94,0.85 22.92,0.56 17.91,0.28 13.28,-0.01 8.65,-0.30 3.29,-0.36 -2.06,-0.41 -6.01,-0.28 -9.95,-0.14 -12.54,0.09 -15.13,0.34 -16.77,1.12 -18.42,1.91 -18.75,1.94 -19.07,1.96 -19.40,1.91 -19.72,1.85 -20.02,1.72 -20.32,1.59 -20.58,1.39 -20.84,1.19 -21.05,0.93 -21.25,0.68 -21.39,0.38 -21.53,0.08 -21.59,-0.23 -21.66,-0.55 -21.64,-0.88 -21.63,-1.21 -21.53,-1.52 -21.44,-1.84 -21.27,-2.12 -21.10,-2.40 -20.88,-2.64 -20.65,-2.87 -20.37,-3.04 -20.09,-3.22 -19.78,-3.32 -19.46,-3.42 -16.93,-3.01 -14.40,-2.60 -11.00,-2.25 -7.60,-1.91 -3.13,-1.76 1.34,-1.61 6.70,-1.55 12.06,-1.48 18.36,-1.45 24.67,-1.43 28.82,-1.67 32.97,-1.92 35.00,-1.63 37.02,-1.34 37.70,-1.93 38.39,-2.52 38.73,-2.49 39.07,-2.45 39.40,-2.34 39.72,-2.23 40.01,-2.04 40.30,-1.86 40.54,-1.61 40.77,-1.35 40.94,-1.06 41.11,-0.76 41.20,-0.42 41.29,-0.09 41.30,0.24 41.31,0.59 41.24,0.92 41.17,1.26 41.02,1.57 40.87,1.88 40.65,2.14 40.43,2.41 40.15,2.61 39.87,2.81 39.55,2.95 39.24,3.08 38.90,3.13 38.56,3.18 36.76,3.11 34.96,3.04 30.87,2.91 26.78,2.78 22.34,2.77 17.90,2.75 14.09,2.76 10.29,2.77 7.33,2.84 4.37,2.91 4.07,2.91 3.77,2.91 3.42,2.86 3.07,2.82 2.74,2.70 2.42,2.57 2.13,2.37 1.84,2.17 1.61,1.91 1.38,1.65 1.21,1.34 1.05,1.03 0.97,0.69 0.88,0.34 0.88,-0.00 0.88,-0.35 0.97,-0.69 1.05,-1.03 1.22,-1.34 1.38,-1.65 1.61,-1.91 1.84,-2.17 2.13,-2.37 2.42,-2.57 2.75,-2.69 3.08,-2.82 3.43,-2.86 3.77,-2.90 5.56,-2.90 7.35,-2.90 10.87,-2.71 14.40,-2.52 20.64,-2.24 26.87,-1.97 32.80,-1.66 38.73,-1.36 44.70,-1.03 50.67,-0.71 55.98,-0.77 61.30,-0.82 67.01,-1.04 72.72,-1.25 76.14,-1.34 79.55,-1.44 81.19,-1.47 82.83,-1.51 83.18,-1.48 83.53,-1.45 83.86,-1.33 84.19,-1.22 84.48,-1.02 84.78,-0.83 85.02,-0.58 85.26,-0.32 85.43,-0.01 85.60,0.28 85.69,0.62 85.79,0.96 85.80,1.31 85.80,1.66 85.73,2.00 85.66,2.34 85.50,2.66 85.35,2.97 85.12,3.24 84.89,3.51 84.61,3.72 84.33,3.93 84.00,4.06 83.68,4.19 83.33,4.24 82.99,4.29 82.14,3.63 81.29,2.97 79.88,3.07 78.48,3.17 73.74,2.84 68.99,2.51 65.44,2.38 61.88,2.25 56.84,2.48 51.80,2.70 47.90,3.03 44.01,3.36 41.42,3.81 38.84,4.26 38.11,4.93 37.38,5.59 37.07,5.61 36.77,5.63 36.47,5.57 36.17,5.52 35.89,5.39 35.61,5.27 35.37,5.08 35.13,4.89 34.94,4.65 34.75,4.41 34.63,4.14 34.50,3.86 34.44,3.56 34.39,3.26 34.41,2.95 34.42,2.65 34.51,2.36 34.60,2.07 34.76,1.80 34.92,1.54 35.13,1.33 35.35,1.11 35.61,0.95 35.87,0.79 36.16,0.70 36.45,0.61 38.23,1.13 40.01,1.65 42.02,1.69 44.03,1.72 47.46,1.77 50.88,1.82 57.05,1.45 63.23,1.08 69.15,0.67 75.07,0.26 80.79,-0.25 86.52,-0.78 93.20,-1.39 99.87,-1.99 104.28,-2.26 108.70,-2.52 111.04,-2.81 113.38,-3.10 114.03,-3.17 114.69,-3.24 115.03,-3.24 115.36,-3.24 115.69,-3.16 116.01,-3.08 116.31,-2.92 116.61,-2.77 116.86,-2.55 117.11,-2.32 117.31,-2.05 117.50,-1.77 117.62,-1.46 117.74,-1.15 117.78,-0.81 117.82,-0.48 117.78,-0.15 117.74,0.18 117.62,0.49 117.50,0.81 117.31,1.08 117.12,1.36 116.87,1.58 116.62,1.81 116.32,1.96 116.03,2.12 115.70,2.20 115.38,2.28 111.63,2.21 107.88,2.14 104.84,2.11 101.81,2.09 97.13,2.27 92.45,2.45 86.95,2.53 81.45,2.61 76.10,2.83 70.74,3.06 65.99,3.34 61.23,3.63 57.37,4.12 53.51,4.62 51.47,4.82 49.42,5.03 48.88,5.33 48.34,5.62 48.01,5.62 47.68,5.61 47.36,5.53 47.05,5.44 46.76,5.29 46.47,5.13 46.23,4.91 45.98,4.68 45.80,4.41 45.62,4.14 45.51,3.83 45.40,3.52 45.36,3.19 45.33,2.86 45.37,2.54 45.42,2.21 45.54,1.91 45.66,1.60 45.85,1.33 46.05,1.07 46.30,0.85 46.55,0.64 46.84,0.49 47.13,0.34 47.45,0.27 47.77,0.20 49.40,0.55 51.03,0.90 53.34,0.92 55.64,0.95 61.58,0.59 67.51,0.24 73.89,-0.27 80.27,-0.79 86.42,-1.39 92.58,-2.00 97.57,-2.26 102.56,-2.52 106.21,-2.63 109.85,-2.74 110.64,-2.89 111.43,-3.04 111.76,-3.01 112.09,-2.98 112.40,-2.87 112.71,-2.76 112.99,-2.58 113.26,-2.41 113.49,-2.17 113.71,-1.93 113.88,-1.64 114.04,-1.35 114.13,-1.04 114.21,-0.72 114.22,-0.39 114.23,-0.06 114.16,0.25 114.10,0.57 113.95,0.87 113.81,1.16 113.60,1.41 113.39,1.67 113.12,1.86 112.86,2.06 112.55,2.18 112.25,2.31 111.92,2.36 111.60,2.41 109.72,2.09 107.85,1.78 104.50,1.68 101.15,1.57 94.84,1.33 88.54,1.08 83.01,0.98 77.49,0.88 72.21,0.64 66.94,0.40 62.64,0.30 58.34,0.20 53.77,-0.02 49.21,-0.26 46.16,-0.36 43.12,-0.45 41.78,-0.54 40.44,-0.63 40.03,-0.41 39.63,-0.19 39.30,-0.24 38.98,-0.29 38.67,-0.41 38.37,-0.54 38.10,-0.73 37.84,-0.93 37.63,-1.18 37.41,-1.43 37.27,-1.73 37.13,-2.02 37.06,-2.34 36.99,-2.67 37.00,-3.00 37.00,-3.32 37.09,-3.64 37.18,-3.96 37.34,-4.24 37.50,-4.53 37.73,-4.77 37.95,-5.01 38.23,-5.19 38.50,-5.37 38.81,-5.48 39.13,-5.58 39.45,-5.62 39.78,-5.65 41.26,-5.35 42.74,-5.06 46.54,-4.79 50.33,-4.53 55.02,-4.48 59.71,-4.43 64.77,-4.37 69.84,-4.32 74.81,-4.49 79.78,-4.65 84.44,-4.73 89.10,-4.80 91.32,-5.01 93.54,-5.22 93.79,-5.32 94.04,-5.42 94.39,-5.41 94.74,-5.40 95.08,-5.31 95.42,-5.21 95.73,-5.04 96.03,-4.87 96.29,-4.63 96.55,-4.39 96.74,-4.10 96.93,-3.80 97.04,-3.47 97.16,-3.14 97.19,-2.79 97.23,-2.44 97.17,-2.10 97.12,-1.75 96.99,-1.43 96.86,-1.10 96.65,-0.82 96.44,-0.54 96.17,-0.31 95.91,-0.08 95.59,0.06 95.28,0.22 94.93,0.29 94.59,0.36 92.62,0.12 90.66,-0.11 86.80,-0.38 82.95,-0.66 79.23,-0.78 75.50,-0.90 72.19,-0.96 68.88,-1.01 66.52,-1.03 64.16,-1.05 63.14,-0.87 62.13,-0.69 61.78,-0.73 61.43,-0.78 61.10,-0.91 60.78,-1.03 60.49,-1.24 60.20,-1.44 59.97,-1.70 59.74,-1.97 59.58,-2.28 59.42,-2.59 59.34,-2.93 59.26,-3.27 59.27,-3.62 59.27,-3.98 59.36,-4.32 59.44,-4.66 59.61,-4.96 59.78,-5.27 60.01,-5.53 60.25,-5.79 60.54,-5.99 60.83,-6.19 61.16,-6.31 61.48,-6.43 61.83,-6.47 62.18,-6.51 63.33,-6.09 64.48,-5.67 66.20,-5.50 67.91,-5.33 71.24,-5.01 74.57,-4.70 79.05,-4.37 83.54,-4.05 89.88,-3.53 96.22,-3.00 101.53,-2.78 106.84,-2.56 111.64,-2.30 116.45,-2.03 120.35,-1.98 124.26,-1.93 127.25,-1.88 130.25,-1.82 131.52,-1.98 132.79,-2.14 133.04,-2.13 133.30,-2.12 133.65,-2.12 134.00,-2.11 134.35,-2.03 134.69,-1.94 135.00,-1.78 135.31,-1.61 135.57,-1.38 135.83,-1.14 136.03,-0.85 136.23,-0.56 136.35,-0.23 136.47,0.09 136.51,0.44 136.55,0.79 136.51,1.14 136.46,1.48 136.33,1.81 136.21,2.14 136.01,2.43 135.81,2.72 135.54,2.95 135.28,3.18 134.96,3.34 134.65,3.50 134.31,3.58 133.97,3.66 132.46,3.42 130.94,3.18 128.64,3.11 126.33,3.05 121.83,3.01 117.34,2.97 112.93,2.95 108.52,2.94 104.72,2.93 100.93,2.92 98.36,2.92 95.79,2.91 95.27,2.91 94.76,2.91 94.41,2.87 94.06,2.83 93.73,2.70 93.40,2.58 93.11,2.38 92.82,2.18 92.59,1.91 92.36,1.65 92.20,1.34 92.03,1.03 91.95,0.69 91.87,0.34 91.87,-0.00 91.87,-0.35 91.95,-0.69 92.04,-1.03 92.20,-1.34 92.36,-1.65 92.60,-1.91 92.83,-2.18 93.12,-2.38 93.41,-2.58 93.74,-2.70 94.07,-2.82 94.42,-2.87 94.76,-2.91 96.28,-2.70 97.80,-2.50 100.50,-2.43 103.19,-2.36 107.06,-2.33 110.93,-2.29 117.22,-2.09 123.51,-1.88 128.45,-1.79 133.38,-1.71 136.63,-1.67 139.88,-1.63 141.62,-1.61 143.36,-1.59 143.94,-1.78 144.53,-1.97 144.88,-1.92 145.22,-1.88 145.55,-1.75 145.88,-1.62 146.17,-1.42 146.45,-1.22 146.68,-0.95 146.92,-0.69 147.08,-0.38 147.24,-0.06 147.32,0.27 147.40,0.61 147.40,0.96 147.39,1.31 147.30,1.65 147.22,1.99 147.05,2.30 146.89,2.61 146.65,2.87 146.41,3.13 146.12,3.33 145.83,3.53 145.50,3.65 145.17,3.77 144.82,3.81 144.47,3.85 142.24,3.57 140.00,3.29 136.87,2.98 133.74,2.68 129.73,2.36 125.73,2.04 121.40,1.91 117.07,1.78 112.67,1.53 108.27,1.27 104.10,0.98 99.93,0.68 97.65,0.55 95.37,0.42 94.91,0.56 94.46,0.70 94.11,0.64 93.77,0.58 93.44,0.44 93.12,0.30 92.84,0.08 92.57,-0.12 92.35,-0.40 92.13,-0.67 91.98,-0.99 91.84,-1.31 91.77,-1.66 91.71,-2.00 91.73,-2.36 91.74,-2.71 91.85,-3.04 91.95,-3.38 92.13,-3.68 92.31,-3.98 92.56,-4.23 92.80,-4.48 93.10,-4.67 93.40,-4.85 93.74,-4.96 94.07,-5.06 94.42,-5.09 94.77,-5.11 96.81,-4.85 98.85,-4.59 101.64,-4.49 104.44,-4.40 108.14,-4.35 111.84,-4.31 116.29,-4.29 120.74,-4.27 125.89,-4.26 131.05,-4.26 134.84,-4.06 138.64,-3.86 140.97,-3.78 143.29,-3.70 143.91,-3.66 144.52,-3.63 144.87,-3.57 145.22,-3.52 145.54,-3.38 145.86,-3.25 146.15,-3.04 146.43,-2.83 146.65,-2.56 146.88,-2.28 147.03,-1.97 147.18,-1.65 147.25,-1.31 147.32,-0.96 147.31,-0.61 147.30,-0.26 147.20,0.07 147.11,0.41 146.93,0.71 146.76,1.02 146.52,1.27 146.27,1.53 145.98,1.71 145.68,1.90 145.35,2.02 145.02,2.13 144.67,2.16 144.32,2.19 142.24,1.79 140.16,1.40 137.37,1.07 134.59,0.74 130.73,0.40 126.86,0.07 122.90,-0.26 118.94,-0.59 115.97,-0.73 113.00,-0.87 112.48,-2.04 111.96,-3.20 110.62,-1.93 109.27,-0.66 108.92,-0.71 108.57,-0.77 108.25,-0.90 107.93,-1.04 107.64,-1.25 107.36,-1.46 107.14,-1.73 106.91,-2.00 106.76,-2.31 106.61,-2.63 106.53,-2.97 106.46,-3.32 106.47,-3.67 106.48,-4.02 106.58,-4.36 106.67,-4.70 106.85,-5.00 107.02,-5.31 107.26,-5.56 107.50,-5.82 107.80,-6.01 108.09,-6.20 108.43,-6.31 108.76,-6.43 109.11,-6.46 109.46,-6.49 111.00,-6.42 112.55,-6.34 115.72,-6.12 118.89,-5.90 124.56,-5.81 130.22,-5.72 135.58,-5.48 140.93,-5.25 145.52,-4.96 150.11,-4.67 154.43,-4.15 158.74,-3.64 162.63,-3.23 166.52,-2.83 168.68,-2.66 170.83,-2.48 171.25,-2.60 171.66,-2.73 172.01,-2.66 172.35,-2.59 172.67,-2.44 172.99,-2.29 173.26,-2.07 173.54,-1.85 173.75,-1.57 173.96,-1.29 174.10,-0.96 174.24,-0.64 174.30,-0.29 174.35,0.04 174.33,0.39 174.30,0.74 174.19,1.08 174.08,1.41 173.89,1.71 173.70,2.01 173.45,2.25 173.20,2.49 172.90,2.67 172.59,2.85 172.25,2.95 171.92,3.05 171.57,3.06 171.21,3.08 170.08,3.03 168.95,2.98 166.83,2.76 164.70,2.54 161.46,2.46 158.21,2.38 155.46,2.34 152.71,2.30 150.59,2.28 148.47,2.27 147.39,2.44 146.32,2.61 145.96,2.69 145.60,2.76 145.25,2.77 144.90,2.78 144.56,2.70 144.21,2.63 143.90,2.47 143.58,2.31 143.32,2.09 143.05,1.86 142.84,1.57 142.64,1.29 142.51,0.96 142.37,0.64 142.32,0.29 142.27,-0.05 142.31,-0.40 142.34,-0.75 142.46,-1.08 142.58,-1.41 142.77,-1.70 142.97,-2.00 143.22,-2.24 143.48,-2.47 143.79,-2.64 144.10,-2.81 144.44,-2.91 144.78,-3.00 146.18,-2.73 147.58,-2.47 149.29,-2.22 151.00,-1.97 154.58,-1.70 158.15,-1.44 160.56,-1.13 162.97,-0.82 168.44,-0.50 173.91,-0.18 177.79,-0.07 181.66,0.04 184.07,0.10 186.48,0.15 187.71,0.18 188.93,0.20 189.30,0.26 189.67,0.31 190.01,0.45 190.35,0.59 190.66,0.81 190.96,1.03 191.20,1.32 191.44,1.60 191.60,1.93 191.77,2.27 191.85,2.63 191.93,2.99 191.92,3.37 191.91,3.74 191.81,4.10 191.71,4.46 191.53,4.78 191.35,5.11 191.10,5.38 190.84,5.65 190.53,5.86 190.22,6.06 189.87,6.18 189.52,6.31 189.15,6.34 188.78,6.38 187.73,5.84 186.68,5.30 185.63,5.05 184.59,4.79 182.45,4.45 180.31,4.11 177.56,3.96 174.80,3.82 170.75,3.75 166.69,3.68 163.89,3.45 161.09,3.23 159.75,3.13 158.41,3.04 158.06,2.97 157.72,2.90 157.40,2.75 157.08,2.60 156.81,2.37 156.54,2.15 156.33,1.87 156.12,1.59 155.98,1.27 155.84,0.94 155.79,0.60 155.73,0.25 155.76,-0.09 155.79,-0.44 155.90,-0.78 156.01,-1.11 156.20,-1.41 156.39,-1.70 156.64,-1.95 156.90,-2.19 157.20,-2.36 157.51,-2.54 157.84,-2.64 158.18,-2.73 158.53,-2.75 158.88,-2.76 158.65,0.29 158.42,3.34 158.07,3.27 157.73,3.20 157.41,3.05 157.09,2.90 156.82,2.68 156.55,2.45 156.34,2.17 156.13,1.89 155.99,1.57 155.85,1.25 155.80,0.90 155.74,0.55 155.77,0.20 155.80,-0.14 155.91,-0.47 156.02,-0.81 156.21,-1.10 156.40,-1.40 156.65,-1.64 156.91,-1.89 157.21,-2.06 157.52,-2.24 157.85,-2.33 158.19,-2.43 158.54,-2.44 158.89,-2.46 160.60,-2.59 162.30,-2.72 165.76,-2.58 169.23,-2.44 172.51,-2.39 175.80,-2.33 179.20,-2.11 182.60,-1.89 186.33,-1.61 190.06,-1.32 192.56,-1.20 195.05,-1.09 196.68,-0.82 198.31,-0.56 198.74,-0.46 199.17,-0.36 199.51,-0.26 199.85,-0.16 200.15,0.01 200.45,0.18 200.71,0.43 200.96,0.67 201.15,0.97 201.33,1.27 201.44,1.60 201.55,1.94 201.58,2.29 201.61,2.64 201.55,2.98 201.49,3.33 201.35,3.65 201.21,3.98 201.00,4.26 200.79,4.54 200.52,4.76 200.24,4.98 199.92,5.13 199.61,5.28 199.26,5.35 198.92,5.42 198.57,5.40 198.22,5.38 196.59,5.19 194.96,5.00 193.35,4.77 191.74,4.53 190.27,4.24 188.80,3.94 187.47,3.98 186.14,4.02 185.80,3.94 185.46,3.86 185.14,3.71 184.83,3.55 184.56,3.32 184.30,3.09 184.09,2.81 183.89,2.52 183.76,2.19 183.63,1.87 183.58,1.52 183.53,1.17 183.57,0.82 183.60,0.47 183.72,0.14 183.84,-0.18 184.03,-0.47 184.23,-0.76 184.49,-1.00 184.75,-1.24 185.05,-1.41 185.36,-1.58 185.70,-1.67 186.04,-1.76 186.39,-1.76 186.75,-1.77 187.73,-1.35 188.72,-0.92 189.84,-0.78 190.95,-0.63 192.94,-0.53 194.94,-0.43 196.22,-0.37 197.51,-0.32 199.18,-0.30 200.84,-0.28 202.90,-0.27 204.96,-0.26 206.43,-0.04 207.91,0.16 208.70,0.27 209.49,0.38 209.83,0.46 210.17,0.54 210.48,0.70 210.79,0.87 211.06,1.10 211.32,1.33 211.52,1.62 211.73,1.90 211.85,2.23 211.98,2.56 212.02,2.91 212.07,3.26 212.03,3.60 211.99,3.95 211.87,4.28 211.75,4.61 211.55,4.90 211.35,5.19 211.09,5.43 210.83,5.66 210.52,5.83 210.21,5.99 209.87,6.08 209.53,6.17 209.17,6.17 208.82,6.17 206.83,5.90 204.84,5.62 203.69,5.63 202.54,5.63 200.47,5.78 198.40,5.94 196.74,6.03 195.08,6.12 193.82,6.16 192.56,6.19 191.25,6.21 189.93,6.22 188.61,6.23 187.28,6.23 185.96,6.24 184.63,6.24 183.49,6.24 182.36,6.24 180.38,6.51 178.41,6.78 176.77,6.83 175.13,6.89 173.53,6.90 171.93,6.90 170.86,6.67 169.79,6.44 168.06,6.64 166.33,6.84 165.08,6.86 163.83,6.88 162.73,6.89 161.63,6.90 159.45,6.90 157.28,6.91 156.14,6.91 155.01,6.91 153.12,6.91 151.23,6.91 149.79,6.91 148.36,6.91 146.35,6.91 144.34,6.91 141.87,6.91 139.40,6.91 138.18,6.69 136.96,6.47 135.66,6.43 134.36,6.39 132.89,6.61 131.41,6.82 129.63,6.86 127.85,6.90 126.16,6.90 124.47,6.91 123.07,6.91 121.68,6.91 120.07,6.68 118.46,6.44 117.33,6.37 116.20,6.29 114.56,6.27 112.92,6.25 110.97,6.01 109.03,5.77 107.94,5.70 106.85,5.62 105.17,5.35 103.50,5.08 101.33,5.28 99.17,5.47 98.07,5.50 96.97,5.53 95.56,5.55 94.16,5.57 92.70,5.57 91.23,5.58 89.80,5.58 88.36,5.58 86.75,5.58 85.14,5.57 83.91,5.84 82.68,6.10 81.00,6.16 79.32,6.22 77.57,6.23 75.83,6.24 74.42,6.24 73.01,6.24 71.86,6.30 70.70,6.36 68.75,6.36 66.79,6.36 65.26,6.39 63.73,6.42 61.84,6.19 59.95,5.96 58.86,5.91 57.77,5.86 56.68,5.83 55.59,5.80 53.54,5.78 51.49,5.76 50.30,5.76 49.10,5.75 47.25,5.73 45.40,5.70 44.04,5.72 42.67,5.75 41.52,5.75 40.37,5.75 39.12,5.93 37.87,6.11 36.59,6.20 35.30,6.29 34.16,6.33 33.03,6.36 30.55,6.38 28.08,6.41 26.57,6.41 25.06,6.41 23.42,6.41 21.78,6.42 20.69,6.42 19.60,6.42 17.27,6.20 14.93,5.98 12.98,5.67 11.03,5.35 9.69,5.24 8.35,5.13 6.31,5.41 4.27,5.70 2.22,5.72 0.16,5.74 -1.84,5.74 -3.85,5.75 -5.04,5.75 -6.23,5.75 -7.31,5.75 -8.40,5.75 -10.64,5.75 -12.89,5.75 -14.24,5.53 -15.59,5.32 -16.65,5.26 -17.72,5.20 -19.59,5.15 -21.46,5.10 -23.17,5.19 -24.89,5.27 -26.14,5.42 -27.40,5.57 -29.31,5.59 -31.21,5.61 -32.40,5.59 -33.58,5.57 -35.42,5.57 -37.26,5.58 -39.03,5.58 -40.81,5.58 -41.92,5.58 -43.03,5.58 -44.82,5.74 -46.62,5.91 -48.36,6.05 -50.11,6.19 -52.04,6.48 -53.97,6.76 -55.46,6.83 -56.94,6.89 -58.03,6.90 -59.12,6.91 -60.21,6.91 -61.31,6.91 -62.79,6.91 -64.28,6.91 -65.64,6.91 -67.01,6.91 -68.18,6.68 -69.35,6.46 -70.56,6.37 -71.77,6.29 -73.00,6.40 -74.24,6.51 -75.35,6.65 -76.47,6.78 -77.64,6.97 -78.81,7.15 -80.27,7.33 -81.73,7.51 -82.85,7.54 -83.96,7.57 -85.37,7.57 -86.78,7.58 -87.94,7.58 -89.09,7.58 -90.20,7.58 -91.31,7.58 -93.09,7.58 -94.87,7.58 -95.99,7.58 -97.10,7.58 -98.40,7.58 -99.69,7.58 -101.02,7.58 -102.35,7.58 -103.68,7.58 -105.01,7.58 -106.81,7.58 -108.61,7.58 -111.84,6.42 -115.07,5.27 -115.24,5.14 -115.40,5.01 -115.52,4.83 -115.64,4.65 -115.69,4.45 -115.75,4.24 -115.73,4.03 -115.72,3.82 -115.64,3.62 -115.56,3.43 -115.42,3.26 -115.28,3.10 -115.10,3.00 -114.91,2.89 -114.70,2.85 -114.50,2.80 -114.29,2.83 -114.07,2.85 -113.88,2.95 -113.69,3.04 -113.54,3.19 -113.39,3.33 -113.29,3.52 -113.19,3.71 -113.16,3.92 -113.13,4.13 -113.16,4.34 -113.20,4.55 -113.30,4.74 -113.40,4.92 -113.56,5.07 -113.72,5.21 -113.91,5.30 -114.10,5.38 -114.32,5.41 -114.53,5.43 -114.73,5.38 -114.94,5.33 -115.12,5.22 -115.30,5.11 -115.44,4.94 -115.57,4.78 -115.65,4.58 -115.73,4.38 -115.74,4.17 -115.74,3.96 -115.69,3.75 -115.63,3.55 -115.50,3.38 -115.38,3.20 -115.21,3.07 -115.04,2.95 -114.84,2.88 -114.64,2.82 -114.43,2.82 -114.21,2.82 -114.01,2.89 -113.81,2.96 -113.81,2.96 -113.81,2.96 -111.21,2.35 -108.61,1.75 -106.81,1.75 -105.01,1.75 -103.68,1.75 -102.35,1.75 -101.02,1.75 -99.69,1.75 -98.40,1.75 -97.10,1.75 -95.99,1.75 -94.87,1.75 -93.09,1.75 -91.31,1.75 -90.20,1.75 -89.09,1.75 -87.94,1.75 -86.79,1.74 -85.00,1.73 -83.20,1.72 -81.83,1.64 -80.45,1.56 -79.42,1.30 -78.38,1.04 -77.13,0.98 -75.88,0.92 -74.84,0.67 -73.79,0.43 -72.64,0.45 -71.48,0.47 -69.79,0.62 -68.09,0.77 -66.87,0.92 -65.65,1.08 -64.25,1.08 -62.86,1.08 -61.63,1.08 -60.40,1.08 -58.74,1.07 -57.07,1.06 -55.44,0.98 -53.80,0.90 -52.10,0.63 -50.39,0.37 -49.04,0.27 -47.69,0.18 -45.36,-0.03 -43.03,-0.24 -41.92,-0.24 -40.81,-0.24 -39.04,-0.24 -37.26,-0.25 -35.44,-0.25 -33.61,-0.25 -32.46,-0.29 -31.31,-0.32 -29.56,-0.40 -27.82,-0.48 -26.75,-0.49 -25.67,-0.50 -24.08,-0.78 -22.48,-1.07 -21.05,-1.05 -19.61,-1.03 -18.46,-0.99 -17.31,-0.95 -15.09,-0.68 -12.87,-0.41 -10.63,-0.42 -8.40,-0.42 -7.32,-0.42 -6.23,-0.42 -5.04,-0.42 -3.85,-0.42 -1.86,-0.42 0.13,-0.42 2.10,-0.44 4.08,-0.46 5.25,-0.49 6.43,-0.51 7.47,-0.76 8.52,-1.01 10.39,-0.85 12.25,-0.69 14.16,-0.38 16.07,-0.08 17.84,0.08 19.60,0.24 20.69,0.24 21.78,0.24 23.42,0.24 25.05,0.24 26.55,0.24 28.05,0.23 29.43,0.23 30.81,0.22 32.85,0.17 34.88,0.13 35.97,0.06 37.07,-0.01 38.72,-0.21 40.36,-0.41 41.52,-0.41 42.68,-0.41 44.04,-0.39 45.40,-0.36 47.26,-0.39 49.11,-0.41 51.36,-0.40 53.60,-0.39 54.69,-0.38 55.77,-0.36 56.96,-0.33 58.15,-0.29 59.71,-0.17 61.27,-0.06 62.50,0.09 63.73,0.24 65.26,0.27 66.79,0.29 68.75,0.29 70.70,0.29 71.86,0.35 73.01,0.41 74.41,0.41 75.81,0.41 77.51,0.40 79.22,0.39 81.08,0.31 82.94,0.23 84.01,-0.00 85.08,-0.24 86.72,-0.24 88.36,-0.24 89.79,-0.24 91.23,-0.25 92.67,-0.25 94.11,-0.25 95.46,-0.27 96.81,-0.28 98.78,-0.36 100.75,-0.43 102.03,-0.59 103.31,-0.76 104.53,-0.49 105.75,-0.22 107.22,-0.16 108.70,-0.10 109.99,0.15 111.28,0.42 112.77,0.43 114.27,0.43 116.16,0.49 118.05,0.55 119.39,0.82 120.73,1.08 121.88,1.08 123.04,1.08 124.51,1.08 125.99,1.07 127.64,1.06 129.29,1.05 130.90,0.98 132.50,0.91 134.15,0.94 135.80,0.97 137.61,1.02 139.42,1.08 141.88,1.08 144.34,1.08 146.35,1.08 148.36,1.08 149.79,1.08 151.23,1.08 153.12,1.08 155.00,1.08 156.14,1.08 157.27,1.08 159.43,1.07 161.58,1.07 162.66,1.06 163.73,1.05 165.85,0.99 167.97,0.93 169.53,0.86 171.10,0.78 172.38,0.92 173.66,1.07 175.04,1.05 176.42,1.03 178.06,0.94 179.71,0.84 181.02,0.63 182.33,0.41 183.47,0.41 184.62,0.41 185.94,0.41 187.26,0.40 188.56,0.40 189.87,0.39 191.13,0.38 192.40,0.36 193.59,0.33 194.79,0.30 196.20,0.23 197.62,0.17 199.20,-0.02 200.78,-0.22 202.77,-0.16 204.76,-0.11 205.84,0.16 206.93,0.43 208.21,0.40 209.49,0.38 209.83,0.46 210.17,0.54 210.48,0.70 210.79,0.87 211.06,1.10 211.32,1.33 211.52,1.62 211.73,1.90 211.85,2.23 211.98,2.56 212.02,2.91 212.07,3.26 212.03,3.60 211.99,3.95 211.87,4.28 211.75,4.61 211.55,4.90 211.35,5.19 211.09,5.43 210.83,5.66 210.52,5.83 210.21,5.99 209.87,6.08 209.53,6.17 209.17,6.17 208.82,6.17 207.92,6.05 207.02,5.92 205.97,5.74 204.92,5.56 202.84,5.55 200.77,5.54 199.02,5.52 197.27,5.49 195.93,5.44 194.60,5.38 192.22,5.23 189.84,5.08 187.99,4.55 186.14,4.02 185.80,3.94 185.46,3.86 185.15,3.71 184.83,3.55 184.56,3.32 184.30,3.09 184.09,2.81 183.89,2.52 183.76,2.19 183.63,1.87 183.58,1.52 183.53,1.17 183.57,0.82 183.60,0.47 183.72,0.14 183.84,-0.18 184.03,-0.47 184.23,-0.76 184.49,-1.00 184.75,-1.24 185.05,-1.41 185.36,-1.58 185.70,-1.67 186.04,-1.76 186.39,-1.76 186.75,-1.77 186.94,-1.89 187.14,-2.01 188.55,-1.89 189.97,-1.76 191.28,-1.49 192.60,-1.22 193.93,-1.02 195.26,-0.81 197.22,-0.59 199.17,-0.36 199.51,-0.26 199.85,-0.16 200.15,0.01 200.45,0.18 200.71,0.43 200.96,0.67 201.14,0.97 201.33,1.27 201.44,1.60 201.55,1.94 201.58,2.29 201.61,2.64 201.55,2.98 201.49,3.33 201.35,3.65 201.21,3.98 201.00,4.26 200.79,4.54 200.52,4.76 200.24,4.98 199.92,5.13 199.61,5.28 199.26,5.35 198.92,5.42 198.57,5.40 198.22,5.39 197.79,5.28 197.36,5.18 196.06,4.95 194.77,4.73 192.19,4.61 189.62,4.48 185.92,4.20 182.22,3.92 178.96,3.70 175.70,3.49 172.34,3.43 168.99,3.37 165.83,3.23 162.68,3.09 160.55,3.22 158.42,3.34 158.07,3.27 157.73,3.20 157.41,3.05 157.09,2.90 156.82,2.68 156.55,2.45 156.34,2.17 156.13,1.89 155.99,1.57 155.85,1.25 155.80,0.90 155.74,0.55 155.77,0.20 155.80,-0.14 155.91,-0.47 156.02,-0.81 156.21,-1.10 156.40,-1.40 156.65,-1.64 156.91,-1.89 157.21,-2.06 157.51,-2.24 157.85,-2.33 158.19,-2.43 158.54,-2.44 158.89,-2.46 158.65,0.29 158.41,3.04 158.06,2.97 157.72,2.90 157.40,2.75 157.08,2.60 156.81,2.37 156.54,2.15 156.33,1.87 156.12,1.59 155.98,1.27 155.84,0.94 155.79,0.60 155.73,0.25 155.76,-0.09 155.79,-0.44 155.90,-0.78 156.01,-1.11 156.20,-1.41 156.39,-1.70 156.64,-1.95 156.90,-2.19 157.20,-2.36 157.51,-2.54 157.84,-2.64 158.18,-2.73 158.53,-2.75 158.88,-2.76 160.22,-2.67 161.57,-2.57 164.18,-2.36 166.79,-2.14 170.96,-2.07 175.13,-2.00 178.20,-1.81 181.26,-1.63 183.80,-1.20 186.35,-0.76 187.64,-0.27 188.93,0.20 189.30,0.26 189.66,0.31 190.01,0.45 190.35,0.59 190.65,0.81 190.96,1.03 191.20,1.32 191.44,1.60 191.60,1.93 191.77,2.27 191.85,2.63 191.93,2.99 191.92,3.37 191.91,3.74 191.81,4.10 191.71,4.46 191.53,4.78 191.35,5.11 191.10,5.38 190.84,5.65 190.53,5.85 190.22,6.06 189.87,6.18 189.52,6.31 189.15,6.34 188.78,6.38 187.55,6.35 186.33,6.33 183.88,6.27 181.44,6.21 177.50,6.04 173.55,5.87 167.84,5.53 162.14,5.19 159.89,4.85 157.64,4.51 153.88,4.15 150.11,3.79 147.86,3.28 145.60,2.76 145.25,2.77 144.90,2.78 144.56,2.70 144.21,2.63 143.90,2.47 143.58,2.31 143.32,2.09 143.05,1.86 142.84,1.57 142.64,1.29 142.51,0.96 142.37,0.64 142.32,0.29 142.27,-0.05 142.31,-0.40 142.34,-0.75 142.46,-1.08 142.58,-1.41 142.77,-1.70 142.97,-2.00 143.22,-2.24 143.48,-2.47 143.79,-2.64 144.10,-2.81 144.44,-2.91 144.78,-3.00 145.13,-3.08 145.49,-3.15 147.00,-3.35 148.50,-3.55 150.65,-3.54 152.79,-3.52 155.58,-3.48 158.37,-3.44 161.84,-3.34 165.31,-3.25 167.25,-3.04 169.20,-2.83 170.43,-2.78 171.66,-2.73 172.01,-2.66 172.35,-2.59 172.67,-2.44 172.99,-2.29 173.26,-2.07 173.54,-1.85 173.75,-1.57 173.96,-1.29 174.10,-0.96 174.24,-0.64 174.29,-0.29 174.35,0.04 174.33,0.39 174.30,0.74 174.19,1.08 174.08,1.41 173.89,1.71 173.70,2.01 173.45,2.25 173.20,2.49 172.90,2.67 172.59,2.85 172.25,2.95 171.92,3.05 171.57,3.06 171.22,3.08 170.88,3.19 170.54,3.30 168.23,3.13 165.91,2.96 161.98,2.55 158.05,2.14 153.89,1.64 149.74,1.14 145.21,0.85 140.68,0.57 135.40,0.33 130.13,0.10 124.30,0.01 118.48,-0.08 115.38,-0.30 112.28,-0.52 110.77,-0.59 109.27,-0.66 108.92,-0.71 108.57,-0.77 108.25,-0.90 107.93,-1.04 107.64,-1.25 107.36,-1.46 107.14,-1.73 106.91,-2.00 106.76,-2.31 106.61,-2.63 106.53,-2.97 106.46,-3.32 106.47,-3.67 106.48,-4.02 106.58,-4.36 106.67,-4.70 106.85,-5.00 107.02,-5.31 107.26,-5.56 107.50,-5.82 107.80,-6.01 108.09,-6.20 108.43,-6.31 108.76,-6.43 109.11,-6.46 109.46,-6.49 108.16,-5.55 106.86,-4.61 110.07,-5.65 113.27,-6.70 116.35,-6.55 119.43,-6.40 123.40,-6.07 127.36,-5.73 131.33,-5.39 135.29,-5.04 138.29,-4.68 141.29,-4.31 142.91,-3.97 144.52,-3.63 144.87,-3.57 145.22,-3.52 145.54,-3.38 145.86,-3.25 146.15,-3.04 146.43,-2.83 146.65,-2.56 146.88,-2.28 147.03,-1.97 147.18,-1.65 147.25,-1.31 147.32,-0.96 147.31,-0.61 147.30,-0.26 147.20,0.07 147.11,0.41 146.93,0.71 146.76,1.02 146.52,1.27 146.27,1.53 145.98,1.71 145.68,1.90 145.35,2.02 145.02,2.13 144.67,2.16 144.32,2.19 143.70,2.15 143.09,2.12 140.71,2.04 138.34,1.95 134.69,1.76 131.04,1.57 125.88,1.56 120.72,1.55 116.24,1.53 111.77,1.51 108.00,1.46 104.23,1.42 101.16,1.30 98.10,1.18 96.28,0.94 94.46,0.70 94.11,0.64 93.77,0.58 93.44,0.44 93.12,0.30 92.85,0.08 92.57,-0.12 92.35,-0.40 92.13,-0.67 91.98,-0.99 91.84,-1.31 91.77,-1.66 91.71,-2.00 91.73,-2.35 91.74,-2.71 91.85,-3.04 91.95,-3.38 92.13,-3.68 92.31,-3.98 92.56,-4.23 92.80,-4.48 93.10,-4.67 93.40,-4.85 93.74,-4.96 94.07,-5.06 94.42,-5.09 94.77,-5.11 95.16,-5.24 95.54,-5.38 97.94,-5.25 100.34,-5.13 104.48,-4.83 108.61,-4.54 112.93,-4.29 117.25,-4.04 121.72,-3.90 126.19,-3.76 130.25,-3.43 134.30,-3.11 137.53,-2.80 140.76,-2.49 142.64,-2.23 144.53,-1.97 144.88,-1.92 145.22,-1.88 145.55,-1.75 145.88,-1.62 146.17,-1.42 146.45,-1.22 146.68,-0.95 146.91,-0.69 147.08,-0.38 147.24,-0.06 147.32,0.27 147.40,0.61 147.40,0.96 147.39,1.31 147.30,1.65 147.22,1.99 147.05,2.30 146.89,2.61 146.65,2.87 146.41,3.13 146.12,3.33 145.83,3.53 145.50,3.65 145.17,3.77 144.82,3.81 144.47,3.85 143.94,4.03 143.41,4.21 141.61,4.20 139.81,4.19 136.55,4.15 133.28,4.11 128.30,4.03 123.32,3.94 117.10,3.73 110.87,3.53 106.95,3.49 103.02,3.46 99.99,3.36 96.97,3.26 95.86,3.09 94.76,2.91 94.41,2.87 94.06,2.83 93.73,2.70 93.40,2.58 93.11,2.38 92.82,2.18 92.59,1.91 92.36,1.65 92.20,1.34 92.03,1.03 91.95,0.69 91.87,0.35 91.87,-0.00 91.87,-0.35 91.95,-0.69 92.04,-1.03 92.20,-1.34 92.36,-1.65 92.60,-1.91 92.83,-2.18 93.12,-2.38 93.41,-2.58 93.74,-2.70 94.07,-2.82 94.41,-2.87 94.76,-2.91 95.28,-2.91 95.80,-2.91 98.37,-2.90 100.94,-2.90 104.74,-2.89 108.54,-2.89 112.97,-2.87 117.39,-2.85 121.97,-2.81 126.54,-2.77 129.92,-2.44 133.30,-2.12 133.65,-2.12 134.00,-2.11 134.35,-2.03 134.69,-1.94 135.00,-1.78 135.31,-1.61 135.57,-1.38 135.83,-1.14 136.03,-0.85 136.23,-0.56 136.35,-0.23 136.47,0.09 136.51,0.44 136.55,0.79 136.51,1.13 136.46,1.48 136.33,1.81 136.21,2.14 136.01,2.43 135.81,2.72 135.54,2.95 135.28,3.18 134.96,3.34 134.65,3.50 134.31,3.58 133.97,3.66 133.74,3.82 133.51,3.98 131.83,4.16 130.15,4.34 127.11,4.29 124.07,4.23 120.08,4.04 116.09,3.85 111.35,3.54 106.60,3.24 101.17,3.01 95.74,2.79 89.43,2.27 83.11,1.74 78.57,1.41 74.03,1.08 70.55,0.75 67.08,0.42 64.61,-0.13 62.13,-0.69 61.78,-0.73 61.43,-0.78 61.10,-0.91 60.78,-1.03 60.49,-1.24 60.20,-1.44 59.97,-1.70 59.74,-1.97 59.58,-2.28 59.42,-2.59 59.34,-2.93 59.26,-3.27 59.27,-3.62 59.27,-3.98 59.36,-4.32 59.44,-4.65 59.61,-4.96 59.77,-5.27 60.01,-5.53 60.25,-5.79 60.54,-5.99 60.83,-6.19 61.16,-6.31 61.48,-6.43 61.83,-6.47 62.18,-6.51 63.19,-6.69 64.19,-6.87 66.58,-6.85 68.97,-6.83 72.33,-6.77 75.69,-6.72 79.53,-6.59 83.38,-6.47 87.43,-6.17 91.48,-5.87 92.76,-5.64 94.04,-5.42 94.39,-5.41 94.74,-5.40 95.08,-5.31 95.42,-5.21 95.73,-5.04 96.03,-4.87 96.29,-4.63 96.55,-4.39 96.74,-4.10 96.93,-3.81 97.04,-3.47 97.16,-3.14 97.19,-2.79 97.23,-2.44 97.17,-2.10 97.12,-1.75 96.99,-1.43 96.86,-1.10 96.65,-0.82 96.44,-0.54 96.17,-0.31 95.91,-0.08 95.59,0.06 95.28,0.22 94.93,0.29 94.59,0.36 94.37,0.45 94.16,0.55 91.68,0.78 89.19,1.01 84.59,1.08 79.98,1.15 74.88,1.32 69.78,1.49 64.66,1.43 59.55,1.38 54.73,1.17 49.91,0.97 44.77,0.38 39.63,-0.19 39.30,-0.24 38.98,-0.29 38.67,-0.41 38.37,-0.54 38.10,-0.73 37.84,-0.93 37.63,-1.18 37.41,-1.43 37.27,-1.73 37.13,-2.02 37.06,-2.34 36.99,-2.67 37.00,-2.99 37.00,-3.32 37.09,-3.64 37.18,-3.96 37.34,-4.24 37.50,-4.53 37.73,-4.77 37.95,-5.01 38.23,-5.19 38.50,-5.37 38.81,-5.48 39.12,-5.58 39.45,-5.62 39.78,-5.65 39.88,-5.77 39.98,-5.90 41.63,-5.90 43.29,-5.91 46.39,-5.81 49.49,-5.71 53.98,-5.47 58.46,-5.24 62.83,-5.14 67.19,-5.04 72.39,-4.80 77.59,-4.57 83.17,-4.46 88.75,-4.36 95.04,-4.12 101.34,-3.87 105.09,-3.72 108.83,-3.58 110.13,-3.31 111.43,-3.04 111.76,-3.01 112.09,-2.98 112.40,-2.87 112.71,-2.76 112.99,-2.58 113.26,-2.41 113.49,-2.17 113.71,-1.93 113.88,-1.64 114.04,-1.35 114.13,-1.04 114.21,-0.72 114.22,-0.39 114.23,-0.06 114.16,0.25 114.10,0.57 113.95,0.87 113.81,1.16 113.60,1.41 113.39,1.67 113.12,1.86 112.86,2.06 112.55,2.18 112.25,2.31 111.92,2.36 111.60,2.41 110.84,2.73 110.08,3.06 106.47,3.17 102.87,3.28 98.01,3.53 93.15,3.79 86.94,4.39 80.74,5.00 74.28,5.53 67.82,6.05 61.59,6.35 55.36,6.65 51.85,6.14 48.34,5.62 48.01,5.62 47.68,5.61 47.36,5.53 47.05,5.44 46.76,5.29 46.47,5.13 46.23,4.91 45.98,4.68 45.80,4.41 45.62,4.14 45.51,3.83 45.40,3.52 45.36,3.19 45.33,2.86 45.37,2.54 45.42,2.21 45.54,1.91 45.66,1.60 45.85,1.33 46.05,1.07 46.30,0.85 46.55,0.64 46.84,0.49 47.13,0.34 47.45,0.27 47.77,0.20 48.22,-0.06 48.67,-0.33 50.74,-0.56 52.82,-0.78 56.86,-1.30 60.90,-1.81 65.71,-2.10 70.52,-2.39 75.94,-2.61 81.37,-2.84 86.80,-2.91 92.24,-2.99 97.04,-3.17 101.85,-3.36 104.91,-3.33 107.96,-3.31 111.33,-3.27 114.69,-3.24 115.03,-3.24 115.36,-3.24 115.69,-3.16 116.01,-3.08 116.31,-2.92 116.61,-2.77 116.86,-2.55 117.11,-2.32 117.31,-2.05 117.50,-1.77 117.62,-1.46 117.74,-1.15 117.78,-0.81 117.82,-0.48 117.78,-0.15 117.74,0.18 117.62,0.49 117.50,0.81 117.31,1.08 117.12,1.36 116.87,1.58 116.62,1.81 116.32,1.96 116.03,2.12 115.70,2.20 115.38,2.28 114.73,2.47 114.09,2.66 111.57,2.97 109.04,3.28 104.72,3.54 100.40,3.79 93.72,4.40 87.05,5.01 81.23,5.54 75.40,6.07 69.47,6.34 63.53,6.60 57.14,6.93 50.76,7.26 47.18,7.15 43.60,7.04 40.49,6.31 37.38,5.59 37.07,5.61 36.77,5.63 36.47,5.57 36.17,5.52 35.89,5.39 35.61,5.27 35.37,5.08 35.13,4.89 34.94,4.65 34.75,4.41 34.63,4.14 34.50,3.86 34.44,3.56 34.39,3.26 34.41,2.95 34.42,2.65 34.51,2.36 34.60,2.07 34.76,1.80 34.92,1.54 35.13,1.33 35.35,1.11 35.61,0.95 35.87,0.79 36.16,0.70 36.45,0.61 36.96,0.06 37.48,-0.48 40.53,-1.08 43.58,-1.67 47.53,-2.01 51.48,-2.34 56.78,-2.77 62.08,-3.19 65.71,-3.06 69.34,-2.93 74.31,-2.63 79.27,-2.34 81.05,-1.93 82.83,-1.51 83.18,-1.48 83.53,-1.45 83.86,-1.33 84.19,-1.22 84.48,-1.02 84.78,-0.83 85.02,-0.58 85.26,-0.32 85.43,-0.01 85.60,0.28 85.69,0.62 85.79,0.96 85.80,1.31 85.80,1.66 85.73,2.00 85.66,2.34 85.50,2.66 85.35,2.97 85.12,3.24 84.90,3.51 84.61,3.72 84.33,3.92 84.00,4.06 83.68,4.19 83.33,4.24 82.99,4.29 81.35,4.33 79.71,4.37 76.32,4.46 72.94,4.55 67.15,4.77 61.36,4.99 55.86,5.04 50.35,5.09 44.39,4.77 38.43,4.45 32.53,4.14 26.62,3.83 20.35,3.56 14.08,3.28 10.71,3.09 7.35,2.91 5.56,2.91 3.77,2.91 3.42,2.86 3.07,2.82 2.74,2.70 2.42,2.57 2.13,2.37 1.84,2.17 1.61,1.91 1.38,1.65 1.21,1.34 1.05,1.03 0.97,0.69 0.88,0.34 0.88,-0.00 0.88,-0.35 0.97,-0.69 1.05,-1.03 1.22,-1.34 1.38,-1.65 1.61,-1.91 1.84,-2.17 2.13,-2.37 2.42,-2.57 2.75,-2.69 3.08,-2.82 3.43,-2.86 3.77,-2.90 4.07,-2.90 4.37,-2.90 7.34,-2.82 10.30,-2.75 14.11,-2.72 17.92,-2.70 22.38,-2.68 26.84,-2.66 31.07,-2.71 35.30,-2.76 36.84,-2.64 38.39,-2.52 38.73,-2.49 39.07,-2.45 39.40,-2.34 39.72,-2.23 40.01,-2.04 40.30,-1.86 40.53,-1.61 40.77,-1.36 40.94,-1.06 41.11,-0.76 41.20,-0.42 41.29,-0.09 41.30,0.24 41.31,0.59 41.24,0.92 41.17,1.26 41.02,1.57 40.87,1.88 40.65,2.14 40.43,2.41 40.15,2.61 39.87,2.81 39.55,2.95 39.24,3.08 38.90,3.13 38.56,3.18 38.98,3.04 39.40,2.90 36.31,3.34 33.21,3.78 28.93,3.89 24.65,4.01 18.32,3.98 11.99,3.95 6.57,3.89 1.15,3.82 -3.50,3.66 -8.16,3.50 -11.83,3.11 -15.49,2.73 -16.95,2.32 -18.42,1.91 -18.74,1.94 -19.07,1.96 -19.40,1.91 -19.72,1.85 -20.02,1.72 -20.32,1.59 -20.58,1.39 -20.84,1.19 -21.05,0.93 -21.25,0.68 -21.39,0.38 -21.53,0.08 -21.59,-0.23 -21.66,-0.55 -21.64,-0.88 -21.63,-1.21 -21.53,-1.52 -21.44,-1.84 -21.27,-2.12 -21.11,-2.40 -20.88,-2.64 -20.65,-2.87 -20.37,-3.04 -20.09,-3.22 -19.78,-3.32 -19.47,-3.42 -19.56,-3.66 -19.66,-3.90 -17.65,-4.48 -15.64,-5.07 -12.89,-5.33 -10.14,-5.58 -6.03,-5.72 -1.93,-5.85 3.53,-5.64 8.99,-5.43 13.59,-5.10 18.20,-4.77 23.18,-4.48 28.16,-4.20 33.14,-4.07 38.12,-3.95 40.47,-3.88 42.81,-3.81 45.07,-3.55 47.32,-3.29 47.62,-3.23 47.92,-3.16 48.19,-3.03 48.46,-2.89 48.70,-2.69 48.93,-2.50 49.11,-2.25 49.28,-2.00 49.40,-1.72 49.51,-1.44 49.56,-1.14 49.60,-0.84 49.57,-0.53 49.54,-0.23 49.44,0.05 49.34,0.33 49.17,0.59 49.00,0.84 48.78,1.05 48.55,1.26 48.29,1.40 48.02,1.55 47.73,1.63 47.43,1.71 47.13,1.71 46.82,1.72 46.20,1.64 45.58,1.56 43.79,1.37 42.00,1.19 38.39,1.19 34.79,1.19 29.46,1.20 24.13,1.20 18.82,1.21 13.50,1.22 9.11,1.25 4.72,1.27 1.64,1.33 -1.43,1.39 -3.62,1.31 -5.81,1.22 -6.09,1.21 -6.37,1.19 -6.63,1.11 -6.90,1.02 -7.14,0.88 -7.38,0.73 -7.58,0.54 -7.78,0.34 -7.92,0.10 -8.07,-0.13 -8.15,-0.40 -8.24,-0.67 -8.25,-0.95 -8.27,-1.23 -8.22,-1.50 -8.17,-1.78 -8.05,-2.03 -7.94,-2.29 -7.77,-2.51 -7.59,-2.73 -7.37,-2.91 -7.15,-3.08 -6.90,-3.19 -6.64,-3.31 -6.36,-3.36 -6.09,-3.41 -3.35,-3.70 -0.61,-3.99 3.16,-4.21 6.95,-4.44 11.21,-4.52 15.47,-4.61 20.64,-4.80 25.80,-5.00 29.27,-5.00 32.75,-5.01 35.50,-5.02 38.26,-5.03 40.89,-5.22 43.53,-5.41 43.83,-5.39 44.13,-5.36 44.42,-5.27 44.71,-5.17 44.97,-5.01 45.22,-4.84 45.44,-4.62 45.65,-4.41 45.80,-4.14 45.95,-3.88 46.04,-3.59 46.12,-3.29 46.13,-2.99 46.14,-2.68 46.08,-2.39 46.02,-2.09 45.89,-1.81 45.76,-1.54 45.57,-1.30 45.38,-1.07 45.13,-0.88 44.89,-0.70 44.61,-0.58 44.33,-0.46 44.03,-0.41 43.73,-0.36 42.58,-0.52 41.42,-0.67 39.21,-0.58 36.99,-0.49 34.01,-0.29 31.02,-0.08 26.95,0.42 22.88,0.92 19.70,1.20 16.51,1.49 13.52,1.62 10.52,1.75 8.19,1.86 5.87,1.97 4.45,2.04 3.03,2.11 1.69,2.25 0.34,2.39 0.05,2.39 -0.24,2.40 -0.52,2.34 -0.80,2.27 -1.07,2.14 -1.33,2.01 -1.55,1.82 -1.77,1.64 -1.94,1.40 -2.11,1.16 -2.22,0.89 -2.33,0.62 -2.37,0.33 -2.41,0.05 -2.38,-0.23 -2.35,-0.52 -2.26,-0.80 -2.16,-1.07 -2.00,-1.32 -1.84,-1.56 -1.62,-1.76 -1.41,-1.96 -1.15,-2.10 -0.90,-2.24 -0.62,-2.31 -0.34,-2.39 -0.34,-2.39 L -0.34,-2.39 Z"/></g><g transform="translate(276.66668701171875 34.19916989372555) rotate(0 16.33331298828125 1.333343505859375)" stroke="none"><path fill="#0b7285" d="M 0.33,-2.00 Q 0.33,-2.00 1.50,-1.95 2.68,-1.90 5.03,-1.36 7.39,-0.83 8.70,-0.69 10.01,-0.56 11.67,-0.29 13.34,-0.01 15.51,0.28 17.69,0.58 21.28,0.32 24.87,0.06 28.04,0.40 31.22,0.75 31.43,0.78 31.64,0.80 31.83,0.89 32.02,0.98 32.18,1.13 32.33,1.27 32.43,1.46 32.53,1.65 32.56,1.86 32.59,2.07 32.56,2.28 32.52,2.49 32.42,2.68 32.32,2.86 32.17,3.01 32.01,3.15 31.82,3.24 31.63,3.33 31.41,3.35 31.20,3.37 31.00,3.33 30.79,3.28 30.61,3.17 30.43,3.06 30.29,2.90 30.15,2.73 30.07,2.54 30.00,2.34 29.99,2.13 29.98,1.91 30.03,1.71 30.09,1.50 30.21,1.33 30.33,1.15 30.50,1.03 30.67,0.90 30.87,0.83 31.08,0.77 31.29,0.77 31.50,0.77 31.70,0.84 31.90,0.91 32.07,1.04 32.24,1.16 32.36,1.34 32.48,1.52 32.53,1.72 32.59,1.93 32.58,2.14 32.56,2.35 32.48,2.55 32.40,2.75 32.26,2.91 32.13,3.07 31.94,3.18 31.76,3.29 31.55,3.33 31.35,3.37 31.35,3.37 31.35,3.37 28.26,4.03 25.17,4.68 21.13,4.93 17.08,5.18 14.83,4.87 12.57,4.56 11.02,4.30 9.47,4.04 7.74,3.81 6.01,3.59 3.96,3.13 1.91,2.67 0.79,2.33 -0.33,2.00 -0.56,1.93 -0.80,1.86 -1.01,1.74 -1.22,1.62 -1.40,1.45 -1.58,1.28 -1.71,1.07 -1.84,0.86 -1.91,0.63 -1.99,0.39 -2.01,0.15 -2.03,-0.09 -1.99,-0.33 -1.95,-0.57 -1.85,-0.79 -1.75,-1.02 -1.60,-1.21 -1.46,-1.41 -1.27,-1.56 -1.08,-1.72 -0.85,-1.82 -0.63,-1.93 -0.39,-1.98 -0.15,-2.02 0.08,-2.01 0.33,-2.00 0.33,-2.00 L 0.33,-2.00 Z"/></g><g transform="translate(272 27.53251339958493) rotate(0 -72 -3.6666717529296875)" stroke="none"><path fill="#0b7285" d="M -0.90,1.81 Q -0.90,1.81 -2.07,1.27 -3.24,0.73 -4.36,0.07 -5.48,-0.58 -6.71,-0.88 -7.94,-1.17 -9.43,-1.50 -10.91,-1.84 -12.38,-1.87 -13.85,-1.91 -15.07,-1.78 -16.30,-1.66 -17.74,-1.60 -19.18,-1.55 -20.39,-1.35 -21.60,-1.15 -23.10,-0.87 -24.60,-0.60 -25.75,-0.30 -26.90,-0.01 -28.36,0.15 -29.83,0.31 -33.15,0.48 -36.47,0.65 -38.38,0.41 -40.30,0.17 -41.94,0.08 -43.58,-0.00 -45.21,-0.24 -46.83,-0.49 -47.95,-0.58 -49.08,-0.67 -50.33,-0.92 -51.58,-1.18 -52.95,-1.33 -54.32,-1.48 -55.47,-2.18 -56.62,-2.89 -56.85,-3.05 -57.07,-3.22 -57.25,-3.43 -57.43,-3.65 -57.56,-3.90 -57.68,-4.15 -57.74,-4.42 -57.80,-4.70 -57.80,-4.98 -57.79,-5.26 -57.71,-5.53 -57.64,-5.80 -57.50,-6.04 -57.37,-6.29 -57.18,-6.49 -56.99,-6.70 -56.75,-6.85 -56.52,-7.01 -56.25,-7.10 -55.99,-7.19 -55.71,-7.22 -55.43,-7.25 -55.15,-7.20 -54.87,-7.16 -54.61,-7.06 -54.36,-6.95 -51.95,-6.77 -49.55,-6.59 -48.16,-6.51 -46.76,-6.44 -45.20,-6.41 -43.64,-6.37 -41.83,-6.36 -40.01,-6.34 -37.61,-6.14 -35.21,-5.94 -33.51,-5.86 -31.80,-5.78 -30.13,-5.74 -28.46,-5.71 -26.79,-5.69 -25.13,-5.68 -23.27,-5.74 -21.41,-5.80 -18.98,-5.63 -16.56,-5.47 -14.54,-5.18 -12.52,-4.90 -10.86,-4.58 -9.21,-4.26 -8.06,-4.15 -6.92,-4.03 -5.70,-3.98 -4.47,-3.93 -3.19,-3.91 -1.90,-3.89 -0.58,-3.88 0.72,-3.87 2.23,-3.66 3.73,-3.45 4.96,-3.38 6.18,-3.31 7.65,-3.06 9.12,-2.82 10.43,-2.39 11.74,-1.97 12.90,-2.20 14.06,-2.42 15.23,-2.46 16.40,-2.50 17.71,-2.51 19.02,-2.52 19.50,-2.52 19.98,-2.52 20.28,-2.48 20.58,-2.45 20.87,-2.34 21.15,-2.23 21.40,-2.06 21.65,-1.89 21.86,-1.66 22.06,-1.43 22.20,-1.16 22.34,-0.89 22.42,-0.60 22.49,-0.30 22.49,-0.00 22.49,0.30 22.42,0.59 22.35,0.89 22.21,1.16 22.06,1.43 21.86,1.65 21.66,1.88 21.41,2.06 21.16,2.23 20.88,2.34 20.59,2.45 20.29,2.48 19.99,2.52 18.29,2.52 16.60,2.52 15.28,2.52 13.95,2.52 12.43,2.52 10.91,2.52 9.15,2.32 7.40,2.12 5.85,2.05 4.29,1.97 2.30,1.94 0.30,1.90 -1.50,1.89 -3.32,1.88 -4.85,1.87 -6.39,1.86 -8.00,1.86 -9.61,1.86 -12.12,1.66 -14.63,1.46 -16.57,1.39 -18.50,1.31 -20.28,1.27 -22.05,1.24 -23.73,1.09 -25.42,0.94 -26.56,0.89 -27.71,0.84 -29.32,0.81 -30.92,0.77 -32.56,0.55 -34.19,0.33 -35.66,0.25 -37.13,0.18 -38.54,0.14 -39.94,0.11 -41.68,0.09 -43.41,0.07 -44.73,0.07 -46.05,0.06 -48.13,0.33 -50.22,0.59 -52.46,0.55 -54.69,0.51 -56.03,0.51 -57.37,0.52 -58.56,0.30 -59.76,0.09 -61.23,0.00 -62.70,-0.09 -63.76,0.15 -64.82,0.39 -65.89,0.21 -66.97,0.02 -68.33,-0.34 -69.69,-0.72 -70.20,-0.77 -70.72,-0.81 -71.00,-0.92 -71.29,-1.02 -71.54,-1.20 -71.79,-1.37 -72.00,-1.59 -72.20,-1.82 -72.34,-2.09 -72.49,-2.36 -72.56,-2.65 -72.64,-2.95 -72.64,-3.25 -72.64,-3.56 -72.57,-3.85 -72.50,-4.15 -72.36,-4.42 -72.22,-4.69 -72.02,-4.92 -71.82,-5.15 -71.57,-5.32 -71.32,-5.50 -71.04,-5.61 -70.75,-5.72 -70.45,-5.76 -70.15,-5.79 -69.85,-5.76 -69.54,-5.73 -67.74,-6.28 -65.94,-6.83 -64.40,-6.75 -62.86,-6.66 -61.47,-6.41 -60.08,-6.16 -58.91,-6.08 -57.73,-5.99 -56.47,-5.95 -55.20,-5.91 -53.87,-5.69 -52.55,-5.46 -51.00,-5.43 -49.45,-5.41 -47.72,-5.30 -45.98,-5.19 -44.78,-5.05 -43.57,-4.90 -43.29,-4.77 -43.02,-4.64 -42.78,-4.45 -42.54,-4.26 -42.36,-4.02 -42.17,-3.77 -42.05,-3.49 -41.93,-3.21 -41.88,-2.91 -41.83,-2.61 -41.86,-2.31 -41.88,-2.00 -41.98,-1.71 -42.07,-1.42 -42.23,-1.16 -42.40,-0.91 -42.62,-0.69 -42.83,-0.48 -43.10,-0.33 -43.36,-0.17 -43.65,-0.09 -43.95,-0.00 -44.25,0.00 -44.56,0.01 -44.86,-0.04 -45.16,-0.10 -47.11,0.20 -49.06,0.51 -50.65,0.31 -52.24,0.11 -54.02,-0.15 -55.79,-0.43 -57.39,-0.53 -58.98,-0.63 -60.76,-0.88 -62.53,-1.13 -64.11,-1.22 -65.68,-1.32 -67.62,-1.56 -69.56,-1.80 -71.03,-2.11 -72.50,-2.42 -73.79,-2.83 -75.09,-3.24 -74.69,-2.90 -74.30,-2.55 -74.62,-2.63 -74.94,-2.71 -75.23,-2.87 -75.52,-3.02 -75.76,-3.24 -76.01,-3.46 -76.19,-3.73 -76.38,-4.00 -76.49,-4.31 -76.60,-4.62 -76.64,-4.94 -76.68,-5.27 -76.64,-5.60 -76.59,-5.92 -76.48,-6.23 -76.36,-6.53 -76.17,-6.80 -75.98,-7.07 -75.73,-7.29 -75.49,-7.50 -75.19,-7.65 -74.90,-7.80 -74.58,-7.88 -74.26,-7.96 -73.94,-7.95 -73.61,-7.95 -72.08,-7.77 -70.55,-7.59 -68.45,-7.78 -66.35,-7.98 -64.71,-8.00 -63.08,-8.02 -61.42,-8.03 -59.77,-8.04 -58.12,-7.84 -56.48,-7.64 -54.84,-7.36 -53.20,-7.08 -51.63,-6.93 -50.06,-6.78 -49.98,-6.76 -49.91,-6.74 -49.58,-6.68 -49.26,-6.61 -48.97,-6.47 -48.67,-6.33 -48.41,-6.13 -48.16,-5.92 -47.96,-5.66 -47.76,-5.40 -47.63,-5.10 -47.50,-4.79 -47.45,-4.47 -47.39,-4.15 -47.42,-3.82 -47.44,-3.49 -47.55,-3.18 -47.65,-2.87 -47.82,-2.59 -48.00,-2.31 -48.23,-2.08 -48.47,-1.86 -48.75,-1.69 -49.04,-1.53 -49.35,-1.43 -49.67,-1.34 -49.99,-1.33 -50.32,-1.31 -51.96,-1.83 -53.61,-2.35 -54.85,-2.46 -56.09,-2.57 -57.74,-2.84 -59.39,-3.11 -61.46,-3.19 -63.53,-3.27 -65.02,-3.26 -66.51,-3.26 -68.95,-3.54 -71.39,-3.83 -74.05,-3.85 -76.71,-3.87 -79.00,-3.87 -81.29,-3.88 -83.29,-3.71 -85.29,-3.54 -87.21,-3.46 -89.13,-3.39 -90.91,-3.35 -92.69,-3.32 -94.41,-3.31 -96.12,-3.29 -98.39,-3.29 -100.65,-3.28 -102.71,-3.48 -104.76,-3.67 -106.46,-3.73 -108.17,-3.78 -109.84,-3.95 -111.51,-4.12 -113.49,-4.40 -115.47,-4.69 -116.80,-4.80 -118.14,-4.92 -119.24,-4.78 -120.34,-4.64 -121.57,-4.41 -122.80,-4.17 -124.29,-4.05 -125.78,-3.92 -127.20,-3.69 -128.62,-3.47 -129.95,-3.36 -131.28,-3.24 -133.39,-2.75 -135.51,-2.26 -136.78,-2.11 -138.05,-1.95 -139.18,-1.89 -140.31,-1.83 -141.56,-1.81 -142.82,-1.79 -143.92,-1.78 -145.03,-1.77 -147.28,-1.76 -149.54,-1.75 -150.63,-1.75 -151.72,-1.75 -153.79,-1.97 -155.86,-2.19 -158.21,-2.58 -160.55,-2.96 -162.25,-3.79 -163.95,-4.62 -164.16,-4.67 -164.36,-4.72 -164.54,-4.84 -164.72,-4.95 -164.86,-5.12 -164.99,-5.28 -165.07,-5.48 -165.14,-5.68 -165.15,-5.89 -165.16,-6.10 -165.10,-6.31 -165.03,-6.51 -164.91,-6.68 -164.79,-6.86 -164.62,-6.98 -164.44,-7.11 -164.24,-7.17 -164.04,-7.23 -163.83,-7.23 -163.61,-7.23 -163.41,-7.15 -163.21,-7.08 -163.05,-6.95 -162.88,-6.82 -162.77,-6.64 -162.65,-6.46 -162.60,-6.26 -162.55,-6.05 -162.56,-5.84 -162.58,-5.63 -162.66,-5.43 -162.74,-5.23 -162.88,-5.08 -163.02,-4.92 -163.21,-4.81 -163.39,-4.70 -163.60,-4.66 -163.81,-4.62 -164.02,-4.65 -164.23,-4.68 -164.42,-4.77 -164.61,-4.86 -164.76,-5.01 -164.92,-5.16 -165.01,-5.35 -165.11,-5.54 -165.14,-5.75 -165.17,-5.96 -165.13,-6.17 -165.09,-6.38 -164.99,-6.57 -164.88,-6.75 -164.73,-6.89 -164.57,-7.04 -164.37,-7.12 -164.18,-7.21 -163.97,-7.23 -163.76,-7.24 -163.76,-7.24 -163.76,-7.24 -161.79,-7.80 -159.82,-8.36 -157.26,-8.13 -154.70,-7.90 -153.21,-7.73 -151.72,-7.57 -150.63,-7.57 -149.55,-7.57 -147.31,-7.58 -145.08,-7.59 -144.00,-7.59 -142.93,-7.60 -141.76,-7.62 -140.60,-7.65 -138.72,-7.78 -136.84,-7.92 -135.58,-8.22 -134.32,-8.52 -133.04,-8.78 -131.76,-9.04 -130.64,-9.13 -129.52,-9.22 -127.88,-9.47 -126.25,-9.72 -125.06,-9.81 -123.86,-9.89 -122.40,-10.16 -120.93,-10.43 -119.29,-10.57 -117.66,-10.71 -116.15,-10.58 -114.64,-10.45 -112.65,-10.16 -110.65,-9.87 -109.28,-9.59 -107.91,-9.30 -106.07,-9.20 -104.23,-9.09 -102.45,-8.91 -100.66,-8.73 -98.42,-8.73 -96.17,-8.74 -94.48,-8.75 -92.79,-8.76 -91.07,-8.79 -89.35,-8.83 -87.54,-8.90 -85.73,-8.97 -83.47,-9.15 -81.20,-9.33 -78.87,-9.26 -76.54,-9.19 -73.74,-9.03 -70.94,-8.87 -68.64,-8.73 -66.34,-8.59 -64.81,-8.49 -63.27,-8.40 -60.92,-8.25 -58.58,-8.11 -57.06,-7.86 -55.54,-7.61 -53.83,-7.40 -52.12,-7.19 -51.01,-6.96 -49.91,-6.74 -49.58,-6.68 -49.26,-6.61 -48.97,-6.47 -48.67,-6.33 -48.41,-6.13 -48.16,-5.92 -47.96,-5.66 -47.76,-5.40 -47.63,-5.10 -47.50,-4.79 -47.45,-4.47 -47.39,-4.15 -47.42,-3.82 -47.44,-3.49 -47.55,-3.18 -47.65,-2.87 -47.82,-2.59 -48.00,-2.31 -48.23,-2.08 -48.47,-1.86 -48.75,-1.69 -49.04,-1.53 -49.35,-1.43 -49.67,-1.34 -49.99,-1.33 -50.32,-1.31 -51.09,-1.39 -51.85,-1.46 -52.99,-1.59 -54.13,-1.71 -55.65,-1.98 -57.17,-2.24 -58.46,-2.42 -59.75,-2.59 -61.38,-2.58 -63.01,-2.58 -64.59,-2.56 -66.18,-2.54 -67.59,-2.50 -69.00,-2.46 -70.35,-2.38 -71.71,-2.29 -73.01,-2.42 -74.30,-2.55 -74.62,-2.63 -74.94,-2.71 -75.23,-2.87 -75.52,-3.02 -75.76,-3.24 -76.01,-3.46 -76.19,-3.73 -76.38,-4.00 -76.49,-4.31 -76.60,-4.62 -76.64,-4.94 -76.68,-5.27 -76.64,-5.59 -76.59,-5.92 -76.48,-6.23 -76.36,-6.53 -76.17,-6.80 -75.98,-7.07 -75.73,-7.29 -75.49,-7.50 -75.20,-7.65 -74.90,-7.80 -74.58,-7.88 -74.27,-7.96 -73.94,-7.95 -73.61,-7.95 -72.53,-7.66 -71.45,-7.37 -70.19,-7.10 -68.93,-6.83 -67.15,-6.60 -65.37,-6.37 -63.59,-6.26 -61.82,-6.15 -60.23,-5.91 -58.64,-5.68 -56.83,-5.56 -55.02,-5.43 -53.30,-5.16 -51.58,-4.90 -50.34,-4.72 -49.11,-4.54 -47.58,-4.50 -46.06,-4.46 -44.82,-4.68 -43.57,-4.90 -43.29,-4.77 -43.02,-4.64 -42.78,-4.45 -42.54,-4.26 -42.36,-4.02 -42.17,-3.77 -42.05,-3.49 -41.93,-3.21 -41.88,-2.91 -41.83,-2.61 -41.86,-2.31 -41.88,-2.00 -41.98,-1.71 -42.07,-1.42 -42.23,-1.16 -42.40,-0.91 -42.61,-0.69 -42.83,-0.48 -43.10,-0.33 -43.36,-0.17 -43.65,-0.09 -43.95,-0.00 -44.25,0.00 -44.56,0.01 -44.86,-0.04 -45.16,-0.10 -45.62,-0.12 -46.08,-0.14 -47.84,-0.05 -49.60,0.03 -50.80,-0.13 -51.99,-0.29 -53.68,-0.58 -55.37,-0.87 -56.74,-0.91 -58.12,-0.96 -59.56,-1.08 -61.00,-1.19 -62.98,-1.54 -64.97,-1.88 -66.34,-1.77 -67.72,-1.66 -69.22,-1.24 -70.72,-0.81 -71.00,-0.92 -71.29,-1.02 -71.54,-1.20 -71.79,-1.37 -72.00,-1.59 -72.20,-1.82 -72.34,-2.09 -72.49,-2.36 -72.56,-2.65 -72.64,-2.95 -72.64,-3.25 -72.64,-3.56 -72.57,-3.85 -72.50,-4.15 -72.36,-4.42 -72.22,-4.69 -72.02,-4.92 -71.82,-5.15 -71.57,-5.32 -71.32,-5.50 -71.04,-5.61 -70.75,-5.72 -70.45,-5.76 -70.15,-5.79 -69.85,-5.76 -69.55,-5.73 -68.47,-5.33 -67.40,-4.93 -65.97,-4.80 -64.54,-4.68 -62.56,-4.87 -60.58,-5.06 -58.97,-4.80 -57.37,-4.53 -56.06,-4.54 -54.75,-4.55 -53.48,-4.59 -52.20,-4.63 -50.48,-4.80 -48.76,-4.96 -47.39,-5.17 -46.03,-5.37 -44.70,-5.37 -43.37,-5.36 -41.58,-5.34 -39.79,-5.33 -38.31,-5.29 -36.83,-5.25 -35.13,-5.15 -33.43,-5.05 -32.11,-4.86 -30.80,-4.66 -29.06,-4.62 -27.32,-4.58 -26.01,-4.46 -24.71,-4.33 -23.33,-4.07 -21.95,-3.80 -20.12,-3.77 -18.29,-3.73 -16.26,-3.65 -14.23,-3.56 -11.92,-3.37 -9.60,-3.18 -7.99,-3.18 -6.37,-3.18 -4.82,-3.17 -3.28,-3.17 -1.44,-3.15 0.39,-3.14 2.47,-3.10 4.55,-3.06 6.27,-2.97 8.00,-2.89 9.46,-2.70 10.91,-2.52 12.43,-2.52 13.95,-2.52 15.28,-2.52 16.60,-2.52 18.29,-2.52 19.98,-2.52 20.28,-2.48 20.58,-2.45 20.87,-2.34 21.15,-2.23 21.40,-2.06 21.65,-1.89 21.86,-1.66 22.06,-1.43 22.20,-1.16 22.34,-0.89 22.42,-0.60 22.49,-0.30 22.49,-0.00 22.49,0.30 22.42,0.59 22.35,0.89 22.21,1.16 22.06,1.43 21.86,1.65 21.66,1.88 21.41,2.06 21.16,2.23 20.88,2.34 20.59,2.45 20.29,2.48 19.99,2.52 19.98,2.52 19.97,2.52 18.86,2.52 17.74,2.53 16.56,2.54 15.39,2.55 14.32,2.62 13.26,2.69 12.00,2.81 10.73,2.94 9.50,2.54 8.26,2.15 7.06,1.94 5.87,1.73 4.43,1.63 2.99,1.54 1.84,1.35 0.68,1.17 -0.65,1.16 -1.99,1.15 -3.34,1.13 -4.69,1.10 -6.07,1.04 -7.44,0.98 -8.80,0.83 -10.16,0.69 -11.69,0.39 -13.23,0.09 -15.10,-0.17 -16.98,-0.43 -19.20,-0.65 -21.43,-0.87 -23.30,-0.95 -25.17,-1.02 -26.86,-1.04 -28.56,-1.06 -30.29,-1.09 -32.03,-1.13 -33.82,-1.22 -35.61,-1.30 -37.83,-1.50 -40.05,-1.69 -41.90,-1.71 -43.74,-1.72 -45.38,-1.76 -47.02,-1.80 -48.64,-1.89 -50.25,-1.99 -52.22,-2.19 -54.20,-2.39 -55.41,-2.64 -56.62,-2.89 -56.84,-3.05 -57.07,-3.22 -57.25,-3.43 -57.43,-3.65 -57.56,-3.90 -57.68,-4.15 -57.74,-4.42 -57.80,-4.70 -57.80,-4.98 -57.79,-5.26 -57.71,-5.53 -57.64,-5.80 -57.50,-6.04 -57.37,-6.29 -57.18,-6.49 -56.99,-6.70 -56.75,-6.85 -56.52,-7.01 -56.25,-7.10 -55.99,-7.19 -55.71,-7.22 -55.43,-7.25 -55.15,-7.20 -54.87,-7.16 -54.61,-7.06 -54.36,-6.95 -53.17,-6.65 -51.98,-6.35 -50.32,-6.02 -48.66,-5.70 -47.36,-5.59 -46.06,-5.48 -44.68,-5.26 -43.30,-5.04 -41.48,-4.93 -39.67,-4.83 -37.96,-4.61 -36.25,-4.39 -34.55,-4.28 -32.86,-4.16 -31.60,-4.43 -30.35,-4.70 -29.24,-4.80 -28.13,-4.90 -26.82,-5.23 -25.52,-5.56 -23.95,-5.85 -22.38,-6.14 -20.88,-6.37 -19.38,-6.60 -18.05,-6.64 -16.72,-6.69 -15.04,-6.81 -13.35,-6.93 -11.58,-6.64 -9.80,-6.34 -8.17,-5.90 -6.55,-5.46 -4.95,-4.84 -3.36,-4.22 -2.36,-3.62 -1.35,-3.03 -0.22,-2.42 0.90,-1.81 1.11,-1.68 1.31,-1.54 1.48,-1.36 1.65,-1.18 1.76,-0.97 1.88,-0.75 1.95,-0.52 2.01,-0.28 2.01,-0.03 2.02,0.20 1.97,0.44 1.91,0.68 1.80,0.90 1.69,1.12 1.53,1.30 1.37,1.49 1.17,1.63 0.98,1.78 0.75,1.87 0.52,1.96 0.28,1.99 0.03,2.03 -0.20,2.00 -0.44,1.98 -0.67,1.90 -0.90,1.81 -0.90,1.81 L -0.90,1.81 Z"/></g><g stroke-linecap="round" transform="translate(298.46958279644366 16.560593907320907) rotate(0 15.065876575505438 11.088495223109188)"><path d="M0 0 L30.13 0 L30.13 22.18 L0 22.18" stroke="none" stroke-width="0" fill="#ffffff"/><path d="M0 0 C9.09 0, 18.18 0, 30.13 0 M0 0 C7.04 0, 14.08 0, 30.13 0 M30.13 0 C30.13 7.76, 30.13 15.52, 30.13 22.18 M30.13 0 C30.13 8.46, 30.13 16.92, 30.13 22.18 M30.13 22.18 C18.99 22.18, 7.85 22.18, 0 22.18 M30.13 22.18 C23.98 22.18, 17.82 22.18, 0 22.18 M0 22.18 C0 13.6, 0 5.03, 0 0 M0 22.18 C0 17.66, 0 13.14, 0 0" stroke="#ffffff" stroke-width="1" fill="none"/></g><g transform="translate(308.45537331757293 28.540199382712586) rotate(274.9305174380027 2.443330881085007 0.4311768118663224)" stroke="none"><path fill="#000000" d="M 1.43,-1.43 Q 1.43,-1.43 2.59,-0.62 3.75,0.18 3.05,1.21 2.34,2.23 3.29,1.09 4.23,-0.03 4.70,-0.62 5.16,-1.21 5.42,-1.01 5.68,-0.81 5.88,-0.55 6.08,-0.29 6.21,0.00 6.35,0.30 6.40,0.63 6.46,0.95 6.44,1.28 6.42,1.60 6.32,1.92 6.22,2.23 6.05,2.51 5.88,2.79 5.64,3.02 5.41,3.25 5.13,3.42 4.85,3.59 4.53,3.68 4.22,3.78 3.89,3.80 3.56,3.81 3.24,3.75 2.92,3.69 2.62,3.56 2.32,3.42 1.74,2.43 1.15,1.43 0.55,1.20 -0.05,0.98 -0.21,0.71 -0.36,0.45 -0.45,0.16 -0.54,-0.13 -0.55,-0.43 -0.57,-0.73 -0.51,-1.03 -0.45,-1.33 -0.32,-1.61 -0.19,-1.89 -0.00,-2.13 0.18,-2.36 0.42,-2.55 0.67,-2.73 0.95,-2.86 1.22,-2.98 1.53,-3.03 1.83,-3.08 2.13,-3.06 2.44,-3.04 2.73,-2.94 3.02,-2.85 3.27,-2.69 3.53,-2.53 3.75,-2.31 3.96,-2.09 3.62,-0.36 3.28,1.35 3.79,0.24 4.31,-0.86 4.33,-0.56 4.36,-0.26 4.32,0.03 4.27,0.34 4.15,0.62 4.04,0.90 3.86,1.15 3.68,1.39 3.44,1.59 3.21,1.78 2.93,1.92 2.66,2.05 2.36,2.12 2.06,2.18 1.76,2.17 1.45,2.16 1.16,2.08 0.86,2.00 0.60,1.85 0.33,1.70 0.11,1.49 -0.10,1.28 -0.27,1.03 -0.43,0.77 -0.53,0.48 -0.63,0.19 -0.23,0.16 0.17,0.12 -0.14,0.03 -0.45,-0.05 -0.74,-0.21 -1.03,-0.37 -1.27,-0.59 -1.50,-0.82 -1.68,-1.09 -1.86,-1.37 -1.97,-1.68 -2.08,-1.99 -2.10,-2.32 -2.13,-2.64 -2.09,-2.97 -2.04,-3.29 -1.91,-3.60 -1.79,-3.90 -1.59,-4.16 -1.40,-4.43 -1.14,-4.64 -0.89,-4.85 -0.60,-4.99 -0.30,-5.14 0.01,-5.20 0.33,-5.27 0.66,-5.26 0.98,-5.25 1.97,-4.78 2.95,-4.30 3.72,-3.44 4.49,-2.57 4.67,-0.22 4.85,2.13 4.70,2.28 4.56,2.43 4.37,2.53 4.18,2.63 3.97,2.66 3.76,2.69 3.55,2.66 3.34,2.62 3.15,2.52 2.97,2.42 2.82,2.27 2.68,2.11 2.59,1.92 2.50,1.72 2.48,1.51 2.46,1.30 2.50,1.09 2.55,0.89 2.66,0.71 2.77,0.52 2.93,0.39 3.10,0.25 3.29,0.17 3.49,0.10 3.70,0.09 3.92,0.08 4.12,0.13 4.33,0.19 4.50,0.31 4.68,0.43 4.80,0.60 4.93,0.77 5.00,0.98 5.06,1.18 5.06,1.39 5.06,1.60 4.99,1.80 4.92,2.00 4.79,2.17 4.66,2.34 4.49,2.46 4.31,2.58 4.11,2.63 3.90,2.69 3.69,2.68 3.48,2.66 3.28,2.58 3.08,2.50 2.92,2.36 2.76,2.23 2.65,2.04 2.54,1.86 2.50,1.65 2.45,1.44 2.48,1.23 2.50,1.02 2.59,0.83 2.68,0.64 2.68,0.64 2.68,0.64 1.43,0.38 0.17,0.12 -0.14,0.03 -0.45,-0.05 -0.74,-0.21 -1.03,-0.37 -1.26,-0.59 -1.50,-0.82 -1.68,-1.09 -1.86,-1.37 -1.97,-1.68 -2.08,-1.99 -2.10,-2.32 -2.13,-2.64 -2.09,-2.97 -2.04,-3.29 -1.91,-3.60 -1.79,-3.90 -1.59,-4.16 -1.40,-4.43 -1.14,-4.64 -0.89,-4.85 -0.60,-4.99 -0.30,-5.14 0.01,-5.20 0.33,-5.27 0.66,-5.26 0.98,-5.25 2.29,-4.22 3.59,-3.19 3.95,-2.03 4.31,-0.87 4.33,-0.56 4.36,-0.26 4.32,0.03 4.27,0.34 4.15,0.62 4.04,0.90 3.86,1.15 3.68,1.39 3.44,1.59 3.21,1.78 2.93,1.92 2.66,2.05 2.36,2.12 2.06,2.18 1.76,2.17 1.45,2.16 1.16,2.08 0.86,2.00 0.60,1.85 0.33,1.70 0.11,1.49 -0.10,1.28 -0.27,1.03 -0.43,0.77 -0.53,0.48 -0.63,0.19 0.02,-0.98 0.68,-2.15 0.31,-0.58 -0.05,0.98 -0.21,0.71 -0.36,0.45 -0.45,0.16 -0.54,-0.12 -0.55,-0.43 -0.57,-0.73 -0.51,-1.03 -0.45,-1.33 -0.32,-1.61 -0.19,-1.89 -0.00,-2.13 0.18,-2.36 0.42,-2.55 0.67,-2.73 0.94,-2.86 1.22,-2.98 1.53,-3.03 1.83,-3.08 2.13,-3.06 2.43,-3.04 2.73,-2.94 3.02,-2.85 3.27,-2.69 3.53,-2.53 3.75,-2.31 3.96,-2.09 4.56,-1.65 5.16,-1.21 5.42,-1.01 5.68,-0.81 5.88,-0.55 6.08,-0.29 6.21,0.00 6.35,0.30 6.40,0.63 6.46,0.95 6.44,1.28 6.42,1.60 6.32,1.92 6.22,2.23 6.05,2.51 5.88,2.79 5.64,3.02 5.41,3.25 5.13,3.42 4.85,3.59 4.53,3.68 4.22,3.78 3.89,3.80 3.56,3.81 3.24,3.75 2.92,3.69 2.62,3.56 2.32,3.42 1.47,2.95 0.62,2.48 0.13,0.89 -0.36,-0.68 1.80,-1.75 3.97,-2.81 5.22,-2.04 6.47,-1.28 7.06,0.58 7.64,2.44 7.05,3.50 6.46,4.56 4.24,4.77 2.02,4.98 1.11,4.38 0.20,3.77 -0.61,2.60 -1.43,1.43 -1.58,1.24 -1.74,1.05 -1.84,0.82 -1.94,0.60 -1.98,0.36 -2.03,0.12 -2.01,-0.12 -2.00,-0.36 -1.92,-0.60 -1.85,-0.83 -1.72,-1.04 -1.60,-1.25 -1.42,-1.42 -1.25,-1.60 -1.04,-1.72 -0.83,-1.85 -0.60,-1.92 -0.36,-2.00 -0.12,-2.01 0.12,-2.03 0.36,-1.98 0.60,-1.94 0.82,-1.84 1.05,-1.74 1.24,-1.58 1.43,-1.43 1.43,-1.43 L 1.43,-1.43 Z"/></g><g transform="translate(308.1012418224208 30.088774695661897) rotate(274.9305174380027 0.7186236336198171 -0.4311768118663224)" stroke="none"><path fill="#000000" d="M 2.16,1.08 Q 2.16,1.08 1.88,1.76 1.59,2.44 1.39,3.07 1.18,3.69 1.08,3.98 0.98,4.27 0.82,4.52 0.65,4.78 0.43,4.98 0.21,5.19 -0.05,5.34 -0.32,5.49 -0.61,5.57 -0.90,5.65 -1.21,5.66 -1.51,5.67 -1.81,5.60 -2.11,5.53 -2.38,5.40 -2.65,5.27 -2.89,5.07 -3.12,4.87 -3.30,4.63 -3.48,4.38 -3.59,4.10 -3.71,3.82 -3.75,3.52 -3.80,3.22 -3.77,2.91 -3.74,2.61 -3.73,1.05 -3.73,-0.49 -3.12,-1.74 -2.51,-2.99 -1.72,-3.70 -0.92,-4.41 0.80,-4.95 2.54,-5.48 2.75,-5.52 2.96,-5.56 3.17,-5.53 3.38,-5.51 3.57,-5.41 3.76,-5.32 3.91,-5.17 4.06,-5.02 4.16,-4.83 4.25,-4.64 4.28,-4.43 4.31,-4.22 4.28,-4.01 4.24,-3.80 4.13,-3.62 4.03,-3.43 3.87,-3.29 3.72,-3.15 3.52,-3.06 3.33,-2.98 3.12,-2.96 2.90,-2.94 2.70,-2.99 2.49,-3.04 2.31,-3.15 2.13,-3.26 2.00,-3.43 1.86,-3.59 1.79,-3.79 1.71,-3.99 1.71,-4.20 1.70,-4.42 1.76,-4.62 1.82,-4.82 1.94,-5.00 2.07,-5.17 2.24,-5.30 2.41,-5.42 2.61,-5.48 2.81,-5.55 3.03,-5.54 3.24,-5.54 3.44,-5.47 3.64,-5.40 3.81,-5.26 3.97,-5.13 4.09,-4.95 4.20,-4.78 4.26,-4.57 4.31,-4.36 4.29,-4.15 4.28,-3.94 4.19,-3.74 4.11,-3.55 3.97,-3.39 3.83,-3.23 3.65,-3.12 3.46,-3.02 3.46,-3.02 3.46,-3.02 2.87,-1.30 2.28,0.41 1.22,0.89 0.16,1.38 0.67,2.53 1.18,3.69 1.08,3.98 0.98,4.27 0.82,4.52 0.65,4.78 0.43,4.98 0.21,5.19 -0.05,5.34 -0.32,5.49 -0.61,5.57 -0.90,5.65 -1.21,5.66 -1.51,5.67 -1.81,5.60 -2.11,5.53 -2.38,5.40 -2.65,5.27 -2.89,5.07 -3.12,4.87 -3.30,4.63 -3.48,4.38 -3.59,4.10 -3.71,3.82 -3.75,3.52 -3.80,3.22 -3.77,2.91 -3.74,2.61 -3.33,1.40 -2.92,0.19 -2.54,-0.44 -2.16,-1.08 -2.00,-1.32 -1.84,-1.56 -1.62,-1.76 -1.41,-1.96 -1.15,-2.10 -0.90,-2.24 -0.61,-2.31 -0.33,-2.39 -0.04,-2.39 0.24,-2.40 0.52,-2.34 0.81,-2.27 1.07,-2.14 1.33,-2.01 1.55,-1.82 1.77,-1.63 1.94,-1.40 2.11,-1.16 2.22,-0.89 2.33,-0.62 2.37,-0.33 2.41,-0.04 2.38,0.24 2.35,0.53 2.25,0.80 2.16,1.08 2.16,1.08 L 2.16,1.08 Z"/></g><g stroke-opacity="0.4" fill-opacity="0.4" stroke-linecap="round" transform="translate(292.3799971268033 10) rotate(0 21 16.333343505859375)"><path d="M26.52 0.66 C30.75 1.26, 35.69 4, 38.3 6.87 C40.91 9.74, 42.5 14.36, 42.17 17.87 C41.85 21.38, 39.49 25.39, 36.33 27.92 C33.18 30.45, 27.8 32.79, 23.24 33.05 C18.69 33.31, 12.78 31.44, 9.01 29.49 C5.24 27.54, 1.87 24.57, 0.63 21.35 C-0.61 18.14, -0.32 13.48, 1.58 10.2 C3.48 6.93, 7.91 3.33, 12.05 1.72 C16.19 0.11, 23.85 0.7, 26.44 0.54 C29.03 0.39, 27.66 0.52, 27.59 0.81 M16.29 -0.14 C20.32 -0.93, 26.77 0.81, 30.89 2.52 C35.02 4.23, 39.28 7.07, 41.02 10.12 C42.76 13.16, 42.7 17.57, 41.34 20.77 C39.97 23.97, 36.74 27.42, 32.84 29.32 C28.94 31.21, 22.36 32.39, 17.94 32.15 C13.52 31.9, 9.18 30.35, 6.31 27.84 C3.44 25.34, 1.19 20.69, 0.74 17.11 C0.28 13.53, 0.96 9.16, 3.57 6.36 C6.19 3.56, 14.25 1.33, 16.45 0.32 C18.65 -0.69, 16.84 -0.09, 16.79 0.31" stroke="none" stroke-width="0" fill="#15aabf"/><path d="M23.19 0.51 C27.44 0.79, 32.8 2.91, 35.85 5.43 C38.89 7.95, 41.07 12.18, 41.46 15.61 C41.86 19.04, 40.7 23.27, 38.2 25.99 C35.7 28.71, 30.89 31.15, 26.44 31.92 C22 32.69, 15.74 32.06, 11.54 30.6 C7.35 29.13, 3.14 26.33, 1.28 23.12 C-0.59 19.91, -0.99 14.74, 0.37 11.33 C1.72 7.92, 5.41 4.55, 9.4 2.67 C13.4 0.79, 21.71 0.41, 24.34 0.06 C26.97 -0.3, 25.29 0.32, 25.18 0.55 M20.49 0.33 C24.68 0.15, 31.06 1.23, 34.63 3.34 C38.21 5.44, 41.26 9.35, 41.94 12.97 C42.61 16.6, 41.03 22.01, 38.68 25.08 C36.33 28.14, 32.04 30.26, 27.84 31.37 C23.65 32.48, 17.62 32.97, 13.52 31.75 C9.42 30.54, 5.53 27.03, 3.23 24.08 C0.94 21.13, -1.02 17.51, -0.23 14.05 C0.55 10.59, 4.31 5.67, 7.93 3.33 C11.56 1, 19.42 0.62, 21.5 0.04 C23.59 -0.54, 20.67 -0.48, 20.45 -0.14" stroke="#1864ab" stroke-width="1" fill="none"/></g><g stroke-linecap="round"><g transform="translate(297.585178676132 42.802561689005984) rotate(0 17.92275837505019 0.09191438632937832)"><path d="M0 0 C5.97 0.03, 29.87 0.15, 35.85 0.18 M0 0 C5.97 0.03, 29.87 0.15, 35.85 0.18" stroke="#ffffff" stroke-width="4" fill="none"/></g></g><mask/></svg>